<svg id="Icons" xmlns="http://www.w3.org/2000/svg" viewBox="0 0 140 140"><title>icon_surprize</title><path id="Icon_V2" data-name="Icon V2" d="M120,50a70,70,0,1,0,70,70A70,70,0,0,0,120,50Zm23.57,91a20.56,20.56,0,0,1-5.66,6.71,26.54,26.54,0,0,1-8.23,4.2,33,33,0,0,1-19.42,0,26.55,26.55,0,0,1-8.17-4.2A20.56,20.56,0,0,1,96.43,141a19.15,19.15,0,0,1-2.1-9.1h17.5a6.6,6.6,0,0,0,.76,3.32,6,6,0,0,0,1.93,2.11,7.59,7.59,0,0,0,2.62,1,15,15,0,0,0,2.86.29,10.93,10.93,0,0,0,5.54-1.52,4.94,4.94,0,0,0,2.63-4.55q0-2.22-2.57-4a15.57,15.57,0,0,0-6.53-2.33,40,40,0,0,1-8.93-2.22,31.57,31.57,0,0,1-7.7-4.08,20.79,20.79,0,0,1-5.36-5.66,12.7,12.7,0,0,1-2-6.94,18.44,18.44,0,0,1,2-8.63,19.56,19.56,0,0,1,5.42-6.54,25.73,25.73,0,0,1,7.94-4.14,32.26,32.26,0,0,1,19.19,0,25.16,25.16,0,0,1,8,4.2A19.7,19.7,0,0,1,143,99.06a20.08,20.08,0,0,1,2,9h-17.5q0-4-2.28-5.37a9.75,9.75,0,0,0-5.19-1.4,10.76,10.76,0,0,0-5.19,1.23,4.52,4.52,0,0,0-2.28,4.37,3.61,3.61,0,0,0,1.29,2.63,12.29,12.29,0,0,0,3.38,2.21,25.57,25.57,0,0,0,4.67,1.64,48.81,48.81,0,0,0,5.13,1,24.86,24.86,0,0,1,6.83,1.69,22.59,22.59,0,0,1,5.95,3.5,17,17,0,0,1,4.25,5.25,14.89,14.89,0,0,1,1.64,7.06A19.15,19.15,0,0,1,143.57,141Z" transform="translate(-50 -50)"/></svg>