<svg id="Icons" xmlns="http://www.w3.org/2000/svg" viewBox="0 0 150 142.72"><title>icon_phonerotate</title><g id="rotate_phone" data-name="rotate phone"><path d="M178.33,193.86H61.67A16.69,16.69,0,0,1,45,177.19V130.53a16.69,16.69,0,0,1,16.67-16.67H178.33A16.69,16.69,0,0,1,195,130.53v46.66A16.69,16.69,0,0,1,178.33,193.86Zm-116.66-70A6.67,6.67,0,0,0,55,130.53v46.66a6.67,6.67,0,0,0,6.67,6.67H178.33a6.67,6.67,0,0,0,6.67-6.67V130.53a6.67,6.67,0,0,0-6.67-6.67Z" transform="translate(-45 -51.14)"/><circle cx="124.88" cy="102.72" r="5.83"/><rect x="19" y="89.6" width="7" height="26.25" rx="3.5"/><path d="M170.86,104.28h-10A40.07,40.07,0,0,0,94.39,74.14L87.8,66.62a50.06,50.06,0,0,1,83.06,37.66Z" transform="translate(-45 -51.14)"/><g id="Arrow_2" data-name="Arrow 2"><polygon points="66.31 42.18 24.14 42.18 24.14 0 34.14 0 34.14 32.18 66.31 32.18 66.31 42.18"/></g></g></svg>