<svg id="Icons" xmlns="http://www.w3.org/2000/svg" viewBox="0 0 140 133.51"><title>icon_star</title><path id="Book" d="M123.33,55.31l18.75,38a3.75,3.75,0,0,0,2.8,2l41.94,6.09a3.71,3.71,0,0,1,2.05,6.33l-30.34,29.58a3.71,3.71,0,0,0-1.07,3.29l7.16,41.77a3.71,3.71,0,0,1-5.38,3.91L121.73,166.6a3.71,3.71,0,0,0-3.46,0L80.76,186.32a3.71,3.71,0,0,1-5.38-3.91l7.16-41.77a3.71,3.71,0,0,0-1.07-3.29L51.13,107.77a3.71,3.71,0,0,1,2-6.33l41.94-6.09a3.75,3.75,0,0,0,2.8-2l18.75-38A3.71,3.71,0,0,1,123.33,55.31Z" transform="translate(-50 -53.24)"/></svg>