<svg id="Icons" xmlns="http://www.w3.org/2000/svg" viewBox="0 0 142.66 97.64"><title>icon_sound-off</title><g id="Sound_Off" data-name="Sound Off"><g id="Menu"><polygon points="125.45 48.82 142.66 66.03 137.01 71.69 119.8 54.48 102.59 71.69 96.93 66.03 114.14 48.82 96.93 31.61 102.59 25.95 119.8 43.16 137.01 25.95 142.66 31.61 125.45 48.82"/></g><g id="Sound_on" data-name="Sound on"><path d="M132,75.69v88.62a4.5,4.5,0,0,1-6.92,3.8l-45-28.65a4.5,4.5,0,0,0-2.42-.71H54a4.5,4.5,0,0,1-4.5-4.5v-28.5a4.5,4.5,0,0,1,4.5-4.5H77.66a4.5,4.5,0,0,0,2.42-.71l45-28.65A4.5,4.5,0,0,1,132,75.69Z" transform="translate(-49.5 -71.18)"/></g></g></svg>