<svg id="Icons" xmlns="http://www.w3.org/2000/svg" viewBox="0 0 150 151.35"><title>icon_camerarotate</title><g id="Camera_Reverse" data-name="Camera Reverse"><g id="Refresh"><path d="M121.35,168.48a40.81,40.81,0,1,1,34.91-19.67l-8.55-5.19a30.81,30.81,0,1,0-26.36,14.86Z" transform="translate(-45 -44.33)"/><g id="Arrow_2" data-name="Arrow 2"><polygon points="124.54 118.04 90 118.04 90 83.5 100 83.5 100 108.04 124.54 108.04 124.54 118.04"/></g></g><path d="M177.43,195.67H62.57A17.59,17.59,0,0,1,45,178.11V84.78A17.59,17.59,0,0,1,62.57,67.21H77.86a2.68,2.68,0,0,0,2.68-2.67v-4A16.27,16.27,0,0,1,96.8,44.33h46.41a16.27,16.27,0,0,1,16.25,16.25v4a2.68,2.68,0,0,0,2.68,2.67h15.29A17.59,17.59,0,0,1,195,84.78v93.33A17.59,17.59,0,0,1,177.43,195.67ZM62.57,77.21A7.58,7.58,0,0,0,55,84.78v93.33a7.57,7.57,0,0,0,7.57,7.56H177.43a7.57,7.57,0,0,0,7.57-7.56V84.78a7.58,7.58,0,0,0-7.57-7.57H162.14a12.69,12.69,0,0,1-12.68-12.67v-4a6.25,6.25,0,0,0-6.25-6.25H96.8a6.26,6.26,0,0,0-6.26,6.25v4A12.69,12.69,0,0,1,77.86,77.21Z" transform="translate(-45 -44.33)"/></g></svg>