<svg id="Icons" xmlns="http://www.w3.org/2000/svg" viewBox="0 0 142.97 103.65"><title>icon_sound-on</title><g id="Sound_On" data-name="Sound On"><g id="Sound_on-2" data-name="Sound on"><path d="M131.24,76.38v87.24a4.43,4.43,0,0,1-6.81,3.74l-44.32-28.2a4.41,4.41,0,0,0-2.38-.7H54.43A4.43,4.43,0,0,1,50,134V106a4.43,4.43,0,0,1,4.43-4.43h23.3a4.41,4.41,0,0,0,2.38-.7l44.32-28.2A4.43,4.43,0,0,1,131.24,76.38Z" transform="translate(-50 -68.17)"/></g><path d="M171.54,171.83l-7.07-7.07a63.36,63.36,0,0,0,0-89.51l7.07-7.08A73.38,73.38,0,0,1,171.54,171.83Z" transform="translate(-50 -68.17)"/><path d="M153.2,151,146.13,144a29.18,29.18,0,0,0,0-41.21l7.07-7.07A39.18,39.18,0,0,1,153.2,151Z" transform="translate(-50 -68.17)"/></g></svg>