<svg id="Icons" xmlns="http://www.w3.org/2000/svg" viewBox="0 0 150 91.66"><title>icon_creditcard</title><g id="Card_Number" data-name="Card Number"><path d="M177.4,74.17H62.6A17.62,17.62,0,0,0,45,91.77v56.46a17.62,17.62,0,0,0,17.6,17.6H177.4a17.62,17.62,0,0,0,17.6-17.6V91.77A17.62,17.62,0,0,0,177.4,74.17ZM55,91.77a7.61,7.61,0,0,1,7.6-7.6H177.4a7.61,7.61,0,0,1,7.6,7.6v5.65H55Zm130,56.46a7.61,7.61,0,0,1-7.6,7.6H62.6a7.61,7.61,0,0,1-7.6-7.6V107.42H185Z" transform="translate(-45 -74.17)"/></g></svg>