<svg id="Icons" xmlns="http://www.w3.org/2000/svg" viewBox="0 0 150 150"><title>icon_question</title><g id="question"><path d="M120,195a75,75,0,1,1,75-75A75.09,75.09,0,0,1,120,195Zm0-140a65,65,0,1,0,65,65A65.08,65.08,0,0,0,120,55Z" transform="translate(-45 -45)"/><path d="M142.32,103.84c0,8.82-4.31,13.71-16.3,19.85l-.77,7.58a1.41,1.41,0,0,1-1.44,1.44h-8.92a1.41,1.41,0,0,1-1.43-1.44l-1-13.43c-.1-1,.38-1.34,1.24-1.63,11.13-3.45,13.33-6.61,13.33-10.16,0-4.13-4.41-6.14-7.86-6.14-5.08,0-8.92,2.49-12.28,5.47-1.05,1-2.1,1.05-3,0L98.3,98.47a2.1,2.1,0,0,1-.09-2.88,28.22,28.22,0,0,1,22.15-10.16C131.48,85.43,142.32,92.72,142.32,103.84Zm-15.15,43a7.72,7.72,0,1,1-7.67-7.67A7.71,7.71,0,0,1,127.17,146.8Z" transform="translate(-45 -45)"/></g></svg>