<svg id="Icons" xmlns="http://www.w3.org/2000/svg" viewBox="0 0 140 140"><title>icon_instagram</title><g id="Instagram"><path d="M120,62.61c18.69,0,20.9.07,28.29.41,6.82.31,10.53,1.45,13,2.41a23.22,23.22,0,0,1,13.29,13.29c1,2.46,2.1,6.17,2.41,13,.34,7.39.41,9.6.41,28.29s-.07,20.9-.41,28.29c-.31,6.82-1.45,10.53-2.41,13a23.22,23.22,0,0,1-13.29,13.29c-2.46,1-6.17,2.1-13,2.41-7.38.34-9.6.41-28.29.41s-20.91-.07-28.29-.41c-6.82-.31-10.53-1.45-13-2.41a23.22,23.22,0,0,1-13.29-13.29c-1-2.46-2.1-6.17-2.41-13-.34-7.39-.41-9.6-.41-28.29s.07-20.9.41-28.29c.31-6.82,1.45-10.53,2.41-13A23.22,23.22,0,0,1,78.72,65.43c2.46-1,6.17-2.1,13-2.41,7.39-.34,9.6-.41,28.29-.41M120,50c-19,0-21.39.08-28.86.42a51.38,51.38,0,0,0-17,3.25A35.85,35.85,0,0,0,53.67,74.15a51.38,51.38,0,0,0-3.25,17C50.08,98.61,50,101,50,120s.08,21.39.42,28.86a51.38,51.38,0,0,0,3.25,17,35.85,35.85,0,0,0,20.48,20.48,51.38,51.38,0,0,0,17,3.25c7.47.34,9.85.42,28.86.42s21.39-.08,28.86-.42a51.38,51.38,0,0,0,17-3.25,35.85,35.85,0,0,0,20.48-20.48,51.38,51.38,0,0,0,3.25-17c.34-7.47.42-9.85.42-28.86s-.08-21.39-.42-28.86a51.38,51.38,0,0,0-3.25-17,35.85,35.85,0,0,0-20.48-20.48,51.38,51.38,0,0,0-17-3.25C141.39,50.08,139,50,120,50Z" transform="translate(-50 -50)"/><path d="M120,84.05A36,36,0,1,0,156,120,36,36,0,0,0,120,84.05Zm0,59.28A23.33,23.33,0,1,1,143.33,120,23.32,23.32,0,0,1,120,143.33Z" transform="translate(-50 -50)"/><circle cx="107.37" cy="32.63" r="8.4"/></g></svg>