<svg id="Icons" xmlns="http://www.w3.org/2000/svg" viewBox="0 0 150 150"><title>icon_camera</title><g id="Camera_Reverse" data-name="Camera Reverse"><path d="M177.43,195H62.57A17.53,17.53,0,0,1,45,177.55V85.11A17.52,17.52,0,0,1,62.57,67.67H77.86a2.65,2.65,0,0,0,2.68-2.61V61.15A16.22,16.22,0,0,1,96.8,45h46.41a16.22,16.22,0,0,1,16.25,16.15v3.91a2.65,2.65,0,0,0,2.68,2.61h15.29A17.52,17.52,0,0,1,195,85.11v92.44A17.53,17.53,0,0,1,177.43,195ZM62.57,77.67A7.51,7.51,0,0,0,55,85.11v92.44A7.51,7.51,0,0,0,62.57,185H177.43a7.51,7.51,0,0,0,7.57-7.45V85.11a7.51,7.51,0,0,0-7.57-7.44H162.14a12.66,12.66,0,0,1-12.68-12.61V61.15A6.21,6.21,0,0,0,143.21,55H96.8a6.21,6.21,0,0,0-6.26,6.15v3.91A12.66,12.66,0,0,1,77.86,77.67Z" transform="translate(-45 -45)"/><path d="M120,168.08a42.7,42.7,0,1,1,42.69-42.7A42.74,42.74,0,0,1,120,168.08Zm0-75.39a32.7,32.7,0,1,0,32.69,32.69A32.73,32.73,0,0,0,120,92.69Z" transform="translate(-45 -45)"/></g></svg>