<svg id="Icons" xmlns="http://www.w3.org/2000/svg" viewBox="0 0 140 113.78"><title>icon_twitter</title><path id="Twitter" d="M94,176.89c52.83,0,81.72-43.77,81.72-81.72,0-1.25,0-2.49-.08-3.72A58.39,58.39,0,0,0,190,76.58a57.12,57.12,0,0,1-16.5,4.52,28.82,28.82,0,0,0,12.64-15.89,57.73,57.73,0,0,1-18.24,7A28.74,28.74,0,0,0,119,98.38a81.57,81.57,0,0,1-59.21-30,28.74,28.74,0,0,0,8.9,38.35,28.47,28.47,0,0,1-13-3.6c0,.12,0,.24,0,.37a28.74,28.74,0,0,0,23,28.16,29.05,29.05,0,0,1-7.57,1,28.25,28.25,0,0,1-5.4-.52,28.76,28.76,0,0,0,26.84,20,57.69,57.69,0,0,1-35.68,12.3A59.58,59.58,0,0,1,50,164a81.38,81.38,0,0,0,44,12.9" transform="translate(-50 -63.11)"/></svg>