<svg id="Icons" xmlns="http://www.w3.org/2000/svg" viewBox="0 0 120.56 150"><title>icon_security</title><g id="Security"><path d="M160.92,74.44h-7.47a33.72,33.72,0,0,0-66.9,0H79.08A19.37,19.37,0,0,0,59.72,93.79v81.85A19.38,19.38,0,0,0,79.08,195h81.84a19.38,19.38,0,0,0,19.36-19.36V93.79A19.37,19.37,0,0,0,160.92,74.44ZM120,55a23.75,23.75,0,0,1,23.33,19.44H96.67A23.75,23.75,0,0,1,120,55Zm50.28,120.64a9.37,9.37,0,0,1-9.36,9.36H79.08a9.37,9.37,0,0,1-9.36-9.36V93.79a9.36,9.36,0,0,1,9.36-9.35h81.84a9.36,9.36,0,0,1,9.36,9.35Z" transform="translate(-59.72 -45)"/><path d="M132.56,122.87a12.55,12.55,0,0,1-7.18,11.36v21a5.38,5.38,0,0,1-10.76,0v-21a12.56,12.56,0,1,1,17.94-11.36Z" transform="translate(-59.72 -45)"/></g></svg>