<?xml version="1.0" encoding="utf-8"?>
<!-- Generator: Adobe Illustrator 23.0.4, SVG Export Plug-In . SVG Version: 6.00 Build 0)  -->
<svg version="1.1" id="livetype" xmlns="http://www.w3.org/2000/svg" xmlns:xlink="http://www.w3.org/1999/xlink" x="0px" y="0px"
	 viewBox="0 0 119.7 40" style="enable-background:new 0 0 119.7 40;" xml:space="preserve">
<style type="text/css">
	.st0{fill:#A6A6A6;}
	.st1{fill:#000001;}
	.st2{fill:#FFFFFF;}
</style>
<g>
	<path class="st0" d="M119.7,8.4c0-0.3,0-0.6,0-0.9c0-0.7-0.1-1.3-0.2-2c-0.1-0.7-0.3-1.3-0.6-1.9c-0.3-0.6-0.7-1.1-1.2-1.6
		c-0.5-0.5-1-0.9-1.6-1.2c-0.6-0.3-1.2-0.5-1.9-0.6c-0.7-0.1-1.3-0.2-2-0.2c-0.3,0-0.6,0-0.9,0c-0.4,0-0.7,0-1.1,0H9.5
		C9.2,0,8.8,0,8.4,0C8.1,0,7.8,0,7.5,0c-0.7,0-1.3,0.1-2,0.2C4.8,0.3,4.2,0.5,3.6,0.8C3,1.1,2.5,1.5,2,2C1.5,2.5,1.1,3,0.8,3.6
		C0.5,4.2,0.3,4.9,0.2,5.5C0.1,6.2,0,6.9,0,7.5c0,0.3,0,0.6,0,0.9c0,0.4,0,0.7,0,1.1v20.9c0,0.4,0,0.7,0,1.1c0,0.3,0,0.6,0,0.9
		c0,0.7,0.1,1.3,0.2,2c0.1,0.7,0.3,1.3,0.6,1.9C1.1,37,1.5,37.5,2,38c0.5,0.5,1,0.9,1.6,1.2c0.6,0.3,1.2,0.5,1.9,0.6
		c0.7,0.1,1.3,0.2,2,0.2c0.3,0,0.6,0,0.9,0c0.4,0,0.7,0,1.1,0h100.6c0.4,0,0.7,0,1.1,0c0.3,0,0.6,0,0.9,0c0.7,0,1.3-0.1,2-0.2
		c0.7-0.1,1.3-0.3,1.9-0.6c0.6-0.3,1.1-0.7,1.6-1.2c0.5-0.5,0.9-1,1.2-1.6c0.3-0.6,0.5-1.2,0.6-1.9c0.1-0.7,0.2-1.3,0.2-2
		c0-0.3,0-0.6,0-0.9c0-0.4,0-0.7,0-1.1V9.5C119.7,9.2,119.7,8.8,119.7,8.4z M118.8,30.5c0,0.4,0,0.7,0,1.1c0,0.3,0,0.6,0,0.9
		c0,0.6-0.1,1.2-0.2,1.9c-0.1,0.6-0.3,1.2-0.5,1.7c-0.3,0.5-0.6,1-1,1.4c-0.4,0.4-0.9,0.8-1.4,1c-0.5,0.3-1,0.4-1.7,0.5
		c-0.6,0.1-1.3,0.1-1.9,0.2c-0.3,0-0.6,0-0.9,0l-1.1,0l-101.7,0c-0.3,0-0.6,0-0.9,0c-0.6,0-1.2,0-1.9-0.2c-0.6-0.1-1.2-0.3-1.7-0.5
		c-0.5-0.3-1-0.6-1.4-1c-0.4-0.4-0.8-0.9-1-1.4c-0.3-0.5-0.4-1-0.5-1.7c-0.1-0.7-0.2-1.4-0.2-1.9c0-0.2,0-0.9,0-0.9V8.4
		c0,0,0-0.7,0-0.9c0-0.5,0-1.2,0.2-1.9C1.2,5.1,1.3,4.5,1.6,4c0.3-0.5,0.6-1,1-1.4C3,2.2,3.5,1.9,4,1.6c0.5-0.3,1.1-0.4,1.7-0.5
		C6.3,0.9,7,0.9,7.5,0.9l0.9,0h102.8l0.9,0c0.5,0,1.2,0,1.9,0.2c0.6,0.1,1.1,0.3,1.7,0.5c0.5,0.3,1,0.6,1.4,1c0.4,0.4,0.8,0.9,1,1.4
		c0.3,0.5,0.4,1.1,0.5,1.6c0.1,0.6,0.2,1.3,0.2,1.9c0,0.3,0,0.6,0,0.9c0,0.4,0,0.7,0,1.1V30.5z"/>
	<path class="st1" d="M63.3,10.9c-0.8,0-1.2,0.6-1.2,1.5c0,1,0.4,1.6,1.2,1.6c0.8,0,1.2-0.6,1.2-1.6C64.6,11.5,64.1,10.9,63.3,10.9z
		"/>
	<path class="st1" d="M67.3,13.4c0,0.4,0.4,0.6,0.8,0.6c0.7,0,1.2-0.4,1.2-1v-0.4l-1.1,0.1C67.6,12.8,67.3,13,67.3,13.4z"/>
	<path class="st1" d="M82.6,12.4c0-1-0.4-1.5-1.2-1.5c-0.8,0-1.2,0.6-1.2,1.5c0,1,0.4,1.6,1.2,1.6C82.1,14,82.6,13.4,82.6,12.4z"/>
	<path class="st1" d="M43.8,10.9c-0.8,0-1.2,0.6-1.2,1.5c0,1,0.4,1.6,1.2,1.6c0.8,0,1.2-0.6,1.2-1.6C45,11.5,44.6,10.9,43.8,10.9z"
		/>
	<path class="st1" d="M60.8,22.9c-1.4,0-2.4,1.2-2.4,3c0,1.8,1,3,2.4,3c1.4,0,2.4-1.2,2.4-3C63.2,24.1,62.3,22.9,60.8,22.9z"/>
	<polygon class="st1" points="39.9,20.1 38.1,25.6 41.8,25.6 40,20.1 	"/>
	<path class="st1" d="M39.7,11.7c0-1.3-0.7-2.1-2-2.1h-1.1v4.3h1.1C39,13.9,39.7,13.1,39.7,11.7z"/>
	<path class="st1" d="M50.9,22.9c-1.4,0-2.4,1.2-2.4,3c0,1.8,1,3,2.4,3c1.4,0,2.4-1.2,2.4-3C53.2,24.1,52.3,22.9,50.9,22.9z"/>
	<path class="st1" d="M73.5,14c0.7,0,1.2-0.6,1.2-1.5c0-0.9-0.5-1.5-1.2-1.5c-0.7,0-1.2,0.6-1.2,1.5C72.3,13.4,72.7,14,73.5,14z"/>
	<path class="st1" d="M102.8,10.9c-0.7,0-1.1,0.5-1.2,1.2h2.3C103.9,11.3,103.5,10.9,102.8,10.9z"/>
	<path class="st1" d="M118.8,7.6c0-0.6-0.1-1.3-0.2-1.9c-0.1-0.6-0.3-1.1-0.5-1.6c-0.3-0.5-0.6-1-1-1.4c-0.4-0.4-0.9-0.8-1.4-1
		c-0.5-0.3-1.1-0.4-1.7-0.5c-0.7-0.1-1.3-0.1-1.9-0.2l-0.9,0H8.4l-0.9,0c-0.5,0-1.2,0-1.9,0.2C5.1,1.2,4.5,1.3,4,1.6
		c-0.5,0.3-1,0.6-1.4,1C2.2,3,1.9,3.5,1.6,4c-0.3,0.5-0.4,1-0.5,1.7C0.9,6.3,0.9,7,0.9,7.5c0,0.2,0,0.9,0,0.9v23.1c0,0,0,0.7,0,0.9
		c0,0.5,0,1.2,0.2,1.9c0.1,0.6,0.3,1.2,0.5,1.7c0.3,0.5,0.6,1,1,1.4c0.4,0.4,0.9,0.8,1.4,1c0.5,0.3,1,0.4,1.7,0.5
		c0.6,0.1,1.3,0.1,1.9,0.2c0.3,0,0.6,0,0.9,0l101.7,0l1.1,0c0.3,0,0.6,0,0.9,0c0.6,0,1.2,0,1.9-0.2c0.6-0.1,1.1-0.3,1.7-0.5
		c0.5-0.3,1-0.6,1.4-1c0.4-0.4,0.7-0.9,1-1.4c0.3-0.5,0.4-1.1,0.5-1.7c0.1-0.6,0.2-1.3,0.2-1.9c0-0.3,0-0.6,0-0.9c0-0.4,0-0.7,0-1.1
		V9.5c0-0.4,0-0.7,0-1.1C118.8,8.1,118.8,7.8,118.8,7.6z M102.8,10.1c1.3,0,2,0.9,2,2.3v0.3h-3.2v0c0,0.8,0.5,1.3,1.2,1.3
		c0.5,0,0.9-0.2,1.1-0.5h0.9c-0.2,0.8-0.9,1.3-2,1.3c-1.3,0-2.1-0.9-2.1-2.3C100.7,11,101.5,10.1,102.8,10.1z M91.9,10.2h0.7V9.1
		h0.9v1.1h1V11h-1v2.3c0,0.5,0.2,0.7,0.6,0.7c0.1,0,0.2,0,0.3,0v0.7c-0.1,0-0.3,0-0.5,0c-1,0-1.4-0.3-1.4-1.2V11h-0.7V10.2z
		 M73.2,10.1c0.6,0,1.1,0.3,1.4,0.8h0.1V8.4h0.9v6.3h-0.9V14h-0.1c-0.3,0.5-0.8,0.8-1.4,0.8c-1.1,0-1.9-0.9-1.9-2.3
		C71.3,11,72.1,10.1,73.2,10.1z M59.1,8.4H60v6.3h-0.9V8.4z M35.7,8.7h2.2c1.8,0,2.8,1.1,2.8,3c0,1.9-1,3-2.8,3h-2.2V8.7z
		 M19.9,10.4c0.8-0.9,2.1-1.6,3.2-1.7c0.1,1.3-0.4,2.6-1.1,3.5c-0.8,0.9-2,1.6-3.2,1.5C18.6,12.5,19.3,11.2,19.9,10.4z M26.2,27.8
		c-0.9,1.3-1.8,2.6-3.3,2.7c-1.4,0-1.9-0.9-3.6-0.9c-1.7,0-2.2,0.8-3.6,0.9c-1.4,0.1-2.5-1.4-3.4-2.8c-1.9-2.7-3.3-7.6-1.4-11
		c0.9-1.6,2.6-2.7,4.5-2.7c1.4,0,2.7,1,3.6,1c0.9,0,2.5-1.2,4.2-1c0.7,0,2.7,0.3,4,2.2c-0.1,0.1-2.4,1.4-2.4,4.2
		c0,3.3,2.9,4.4,2.9,4.4C27.7,24.8,27.2,26.3,26.2,27.8z M43.4,30.5l-1.1-3.4h-4.7l-1.1,3.4h-2l4.5-12.4H41l4.5,12.4H43.4z
		 M43.8,14.8c-1.3,0-2.1-0.9-2.1-2.3c0-1.5,0.8-2.3,2.1-2.3c1.3,0,2.1,0.9,2.1,2.3C45.9,13.9,45.1,14.8,43.8,14.8z M47.5,10.2
		l0.8,3.4h0.1l0.9-3.4h0.9l0.9,3.4h0.1l0.8-3.4h0.9l-1.2,4.5h-0.9l-0.9-3.3h-0.1l-0.9,3.3h-0.9l-1.2-4.5H47.5z M51.4,30.6
		c-1.3,0-2.3-0.6-2.8-1.6h0v4.5h-1.9v-12h1.8v1.5h0c0.5-1,1.6-1.6,2.9-1.6c2.3,0,3.8,1.8,3.8,4.6C55.2,28.8,53.7,30.6,51.4,30.6z
		 M55.8,10.9c-0.7,0-1.1,0.4-1.1,1.1v2.6h-0.9v-4.5h0.9v0.7h0.1c0.2-0.5,0.7-0.8,1.3-0.8c1,0,1.6,0.6,1.6,1.7v2.9h-0.9V12
		C56.8,11.3,56.5,10.9,55.8,10.9z M61.3,30.6c-1.3,0-2.3-0.6-2.8-1.6h0v4.5h-1.9v-12h1.8v1.5h0c0.5-1,1.6-1.6,2.9-1.6
		c2.3,0,3.8,1.8,3.8,4.6C65.1,28.8,63.6,30.6,61.3,30.6z M63.3,14.8c-1.3,0-2.1-0.9-2.1-2.3c0-1.5,0.8-2.3,2.1-2.3
		c1.3,0,2.1,0.9,2.1,2.3C65.5,13.9,64.7,14.8,63.3,14.8z M69.3,14.1c-0.3,0.5-0.8,0.7-1.4,0.7c-0.9,0-1.5-0.5-1.5-1.3
		c0-0.8,0.6-1.3,1.7-1.3l1.2-0.1v-0.4c0-0.5-0.3-0.7-0.9-0.7c-0.5,0-0.8,0.2-0.9,0.5h-0.9c0.1-0.8,0.8-1.3,1.8-1.3
		c1.1,0,1.8,0.6,1.8,1.5v3.1h-0.9L69.3,14.1L69.3,14.1z M74.5,30.7c-2.8,0-4.6-1.4-4.7-3.7h1.9c0.1,1.2,1.3,2,3,2
		c1.6,0,2.7-0.8,2.7-1.9c0-1-0.7-1.5-2.3-1.9l-1.6-0.4c-2.3-0.6-3.3-1.6-3.3-3.3c0-2.1,1.9-3.6,4.5-3.6c2.6,0,4.4,1.5,4.5,3.6h-1.9
		c-0.1-1.2-1.1-2-2.6-2s-2.5,0.8-2.5,1.9c0,0.9,0.7,1.4,2.3,1.8l1.4,0.3c2.5,0.6,3.6,1.6,3.6,3.4C79.3,29.2,77.5,30.7,74.5,30.7z
		 M79.2,12.4c0-1.5,0.8-2.3,2.1-2.3c1.3,0,2.1,0.9,2.1,2.3c0,1.5-0.8,2.3-2.1,2.3C80,14.8,79.2,13.9,79.2,12.4z M85.1,22.9h-1.7v5
		c0,0.8,0.3,1.1,1.1,1.1c0.2,0,0.5,0,0.6,0v1.5c-0.2,0.1-0.6,0.1-1,0.1c-1.8,0-2.5-0.7-2.5-2.4v-5.2h-1.3v-1.5h1.3v-2.1h1.9v2.1h1.7
		V22.9z M85.6,12.1v2.6h-0.9v-4.5h0.9v0.7h0.1c0.2-0.5,0.7-0.8,1.3-0.8c1,0,1.6,0.6,1.6,1.7v2.9h-0.9V12c0-0.7-0.3-1.1-1-1.1
		S85.6,11.4,85.6,12.1z M90.4,30.6c-2.6,0-4.3-1.8-4.3-4.6c0-2.8,1.7-4.6,4.3-4.6c2.6,0,4.3,1.8,4.3,4.6
		C94.7,28.8,93,30.6,90.4,30.6z M95.7,8.4h0.9v2.5h0.1c0.2-0.5,0.7-0.8,1.4-0.8c1,0,1.6,0.6,1.6,1.7v2.9h-0.9V12
		c0-0.7-0.3-1.1-1-1.1c-0.7,0-1.1,0.5-1.1,1.1v2.6h-0.9V8.4z M100.8,23.2c-0.1-0.1-0.5-0.1-0.8-0.1c-1.2,0-1.9,0.8-1.9,2.1v5.4h-1.9
		v-9.1H98V23h0c0.3-1,1.1-1.6,2.2-1.6c0.3,0,0.5,0,0.6,0.1V23.2z M109.5,26.4h-6.4v0.1c0,1.5,1,2.6,2.4,2.6c1,0,1.8-0.5,2.1-1.3h1.8
		c-0.2,1.6-1.9,2.8-3.9,2.8c-2.6,0-4.3-1.8-4.3-4.6c0-2.8,1.6-4.7,4.2-4.7c2.5,0,4.1,1.7,4.1,4.5V26.4z"/>
	<path class="st1" d="M105.4,22.8c-1.3,0-2.2,0.9-2.3,2.3h4.5C107.6,23.7,106.7,22.8,105.4,22.8z"/>
	<path class="st1" d="M90.4,22.9C88.9,22.9,88,24,88,26c0,2,0.9,3.1,2.4,3.1s2.4-1.1,2.4-3.1C92.8,24,91.9,22.9,90.4,22.9z"/>
	<path class="st2" d="M24.8,20.3c0-2.8,2.3-4.1,2.4-4.2c-1.3-1.9-3.3-2.1-4-2.2c-1.7-0.2-3.3,1-4.2,1c-0.9,0-2.2-1-3.6-1
		c-1.8,0-3.5,1.1-4.5,2.7c-1.9,3.3-0.5,8.3,1.4,11c0.9,1.3,2,2.8,3.4,2.8c1.4-0.1,1.9-0.9,3.6-0.9c1.7,0,2.1,0.9,3.6,0.9
		c1.5,0,2.4-1.3,3.3-2.7c1.1-1.5,1.5-3,1.5-3.1C27.7,24.7,24.8,23.6,24.8,20.3z"/>
	<path class="st2" d="M22,12.2c0.7-0.9,1.3-2.2,1.1-3.5c-1.1,0-2.4,0.7-3.2,1.7c-0.7,0.8-1.3,2.1-1.1,3.4C20,13.8,21.3,13.1,22,12.2
		z"/>
	<path class="st2" d="M38.9,18.1l-4.5,12.4h2l1.1-3.4h4.7l1.1,3.4h2L41,18.1H38.9z M38.1,25.6l1.9-5.4H40l1.8,5.4H38.1z"/>
	<path class="st2" d="M51.3,21.3c-1.3,0-2.4,0.6-2.9,1.6h0v-1.5h-1.8v12h1.9V29h0c0.5,1,1.6,1.6,2.8,1.6c2.3,0,3.8-1.8,3.8-4.6
		C55.2,23.2,53.6,21.3,51.3,21.3z M50.9,29c-1.4,0-2.4-1.2-2.4-3c0-1.8,1-3,2.4-3c1.4,0,2.4,1.2,2.4,3C53.2,27.8,52.3,29,50.9,29z"
		/>
	<path class="st2" d="M61.3,21.3c-1.3,0-2.4,0.6-2.9,1.6h0v-1.5h-1.8v12h1.9V29h0c0.5,1,1.6,1.6,2.8,1.6c2.3,0,3.8-1.8,3.8-4.6
		C65.1,23.2,63.6,21.3,61.3,21.3z M60.8,29c-1.4,0-2.4-1.2-2.4-3c0-1.8,1-3,2.4-3c1.4,0,2.4,1.2,2.4,3C63.2,27.8,62.3,29,60.8,29z"
		/>
	<path class="st2" d="M75.7,23.5l-1.4-0.3c-1.6-0.4-2.3-0.9-2.3-1.8c0-1.1,1-1.9,2.5-1.9s2.5,0.7,2.6,2h1.9
		c-0.1-2.1-1.9-3.6-4.5-3.6c-2.7,0-4.5,1.5-4.5,3.6c0,1.7,1.1,2.8,3.3,3.3l1.6,0.4c1.6,0.4,2.3,1,2.3,1.9c0,1.1-1.1,1.9-2.7,1.9
		c-1.6,0-2.8-0.8-3-2h-1.9c0.1,2.2,2,3.7,4.7,3.7c2.9,0,4.8-1.5,4.8-3.8C79.3,25.1,78.3,24.1,75.7,23.5z"/>
	<path class="st2" d="M83.3,19.3h-1.9v2.1h-1.3v1.5h1.3v5.2c0,1.8,0.7,2.4,2.5,2.4c0.4,0,0.8,0,1-0.1V29c-0.1,0-0.4,0-0.6,0
		c-0.8,0-1.1-0.4-1.1-1.1v-5h1.7v-1.5h-1.7V19.3z"/>
	<path class="st2" d="M90.4,21.3c-2.6,0-4.3,1.8-4.3,4.6c0,2.9,1.7,4.6,4.3,4.6c2.6,0,4.3-1.8,4.3-4.6C94.7,23.1,93,21.3,90.4,21.3z
		 M90.4,29.1c-1.5,0-2.4-1.1-2.4-3.1c0-1.9,0.9-3.1,2.4-3.1s2.4,1.2,2.4,3.1C92.8,27.9,91.9,29.1,90.4,29.1z"/>
	<path class="st2" d="M98,23L98,23l0-1.5h-1.8v9.1H98v-5.4c0-1.3,0.7-2.1,1.9-2.1c0.4,0,0.7,0.1,0.8,0.1v-1.7
		c-0.1,0-0.4-0.1-0.6-0.1C99.1,21.3,98.3,22,98,23z"/>
	<path class="st2" d="M105.4,21.3c-2.5,0-4.2,1.8-4.2,4.7c0,2.8,1.6,4.6,4.3,4.6c2,0,3.6-1.1,3.9-2.8h-1.8c-0.2,0.8-1.1,1.3-2.1,1.3
		c-1.5,0-2.4-1-2.4-2.6v-0.1h6.4v-0.6C109.5,23.1,107.9,21.3,105.4,21.3z M103.1,25.1c0.1-1.4,1-2.3,2.3-2.3c1.3,0,2.2,0.9,2.2,2.3
		H103.1z"/>
	<path class="st2" d="M40.6,11.7c0-1.9-1-3-2.8-3h-2.2v6h2.2C39.6,14.7,40.6,13.6,40.6,11.7z M36.6,13.9V9.6h1.1c1.2,0,2,0.8,2,2.1
		c0,1.4-0.7,2.1-2,2.1H36.6z"/>
	<path class="st2" d="M43.8,10.1c-1.3,0-2.1,0.9-2.1,2.3c0,1.5,0.8,2.3,2.1,2.3c1.3,0,2.1-0.9,2.1-2.3C45.9,11,45.1,10.1,43.8,10.1z
		 M43.8,14c-0.8,0-1.2-0.6-1.2-1.6c0-1,0.4-1.5,1.2-1.5c0.8,0,1.2,0.6,1.2,1.5C45,13.4,44.6,14,43.8,14z"/>
	<polygon class="st2" points="48.7,14.7 49.7,11.4 49.7,11.4 50.7,14.7 51.6,14.7 52.8,10.2 51.9,10.2 51.1,13.6 51,13.6 50.1,10.2 
		49.3,10.2 48.3,13.6 48.3,13.6 47.5,10.2 46.6,10.2 47.8,14.7 	"/>
	<path class="st2" d="M56.8,14.7h0.9v-2.9c0-1.1-0.6-1.7-1.6-1.7c-0.7,0-1.1,0.3-1.3,0.8h-0.1v-0.7h-0.9v4.5h0.9v-2.6
		c0-0.7,0.4-1.1,1.1-1.1s1,0.4,1,1.1V14.7z"/>
	<rect x="59.1" y="8.4" class="st2" width="0.9" height="6.3"/>
	<path class="st2" d="M63.3,10.1c-1.3,0-2.1,0.9-2.1,2.3c0,1.5,0.8,2.3,2.1,2.3c1.3,0,2.1-0.9,2.1-2.3C65.5,11,64.7,10.1,63.3,10.1z
		 M63.3,14c-0.8,0-1.2-0.6-1.2-1.6c0-1,0.4-1.5,1.2-1.5c0.8,0,1.2,0.6,1.2,1.5C64.6,13.4,64.1,14,63.3,14z"/>
	<path class="st2" d="M70.2,14.7v-3.1c0-1-0.6-1.5-1.8-1.5c-1,0-1.7,0.5-1.8,1.3h0.9c0.1-0.3,0.4-0.5,0.9-0.5c0.6,0,0.9,0.3,0.9,0.7
		V12l-1.2,0.1c-1.1,0.1-1.7,0.5-1.7,1.3c0,0.8,0.6,1.3,1.5,1.3c0.6,0,1.1-0.3,1.4-0.7h0.1v0.6H70.2z M69.3,13c0,0.6-0.5,1-1.2,1
		c-0.5,0-0.8-0.2-0.8-0.6c0-0.4,0.3-0.6,0.9-0.6l1.1-0.1V13z"/>
	<path class="st2" d="M73.2,14.8c0.6,0,1.1-0.3,1.4-0.8h0.1v0.7h0.9V8.4h-0.9v2.5h-0.1c-0.2-0.5-0.8-0.8-1.4-0.8
		c-1.1,0-1.9,0.9-1.9,2.3C71.3,13.9,72.1,14.8,73.2,14.8z M73.5,10.9c0.7,0,1.2,0.6,1.2,1.5c0,0.9-0.5,1.5-1.2,1.5
		c-0.8,0-1.2-0.6-1.2-1.5C72.3,11.5,72.7,10.9,73.5,10.9z"/>
	<path class="st2" d="M83.5,12.4c0-1.5-0.8-2.3-2.1-2.3c-1.3,0-2.1,0.9-2.1,2.3c0,1.5,0.8,2.3,2.1,2.3
		C82.7,14.8,83.5,13.9,83.5,12.4z M80.1,12.4c0-1,0.4-1.5,1.2-1.5c0.8,0,1.2,0.6,1.2,1.5c0,1-0.4,1.6-1.2,1.6
		C80.6,14,80.1,13.4,80.1,12.4z"/>
	<path class="st2" d="M87.6,12v2.7h0.9v-2.9c0-1.1-0.6-1.7-1.6-1.7c-0.7,0-1.1,0.3-1.3,0.8h-0.1v-0.7h-0.9v4.5h0.9v-2.6
		c0-0.7,0.4-1.1,1.1-1.1S87.6,11.3,87.6,12z"/>
	<path class="st2" d="M92.6,13.5c0,0.9,0.4,1.2,1.4,1.2c0.2,0,0.3,0,0.5,0v-0.7c-0.1,0-0.2,0-0.3,0c-0.4,0-0.6-0.2-0.6-0.7V11h1
		v-0.7h-1V9.1h-0.9v1.1h-0.7V11h0.7V13.5z"/>
	<path class="st2" d="M96.6,12.1c0-0.7,0.4-1.1,1.1-1.1c0.6,0,1,0.4,1,1.1v2.7h0.9v-2.9c0-1.1-0.6-1.7-1.6-1.7
		c-0.7,0-1.2,0.3-1.4,0.8h-0.1V8.4h-0.9v6.3h0.9V12.1z"/>
	<path class="st2" d="M102.8,14.8c1,0,1.7-0.5,2-1.3h-0.9c-0.2,0.4-0.5,0.5-1.1,0.5c-0.7,0-1.2-0.5-1.2-1.3v0h3.2v-0.3
		c0-1.4-0.8-2.3-2-2.3c-1.3,0-2.1,0.9-2.1,2.4C100.7,13.9,101.5,14.8,102.8,14.8z M102.8,10.9c0.7,0,1.1,0.5,1.1,1.2h-2.3
		C101.7,11.3,102.1,10.9,102.8,10.9z"/>
</g>
</svg>
