<?xml version="1.0" encoding="utf-8"?>
<!-- Generator: Adobe Illustrator 23.0.4, SVG Export Plug-In . SVG Version: 6.00 Build 0)  -->
<svg version="1.1" id="artwork" xmlns="http://www.w3.org/2000/svg" xmlns:xlink="http://www.w3.org/1999/xlink" x="0px" y="0px"
	 viewBox="0 0 135 40" style="enable-background:new 0 0 135 40;" xml:space="preserve">
<style type="text/css">
	.st0{fill:#FFFFFF;fill-opacity:0;}
	.st1{fill:#A6A6A6;}
	.st2{fill:#FFFFFF;stroke:#FFFFFF;stroke-width:0.2;stroke-miterlimit:10;}
	.st3{fill:#FFFFFF;}
	.st4{fill:url(#SVGID_1_);}
	.st5{fill:url(#SVGID_2_);}
	.st6{fill:url(#SVGID_3_);}
	.st7{fill:url(#SVGID_4_);}
	.st8{fill:url(#SVGID_5_);}
	.st9{fill:url(#SVGID_6_);}
	.st10{fill:url(#SVGID_7_);}
	.st11{fill:url(#SVGID_8_);}
	.st12{fill:url(#SVGID_9_);}
	.st13{fill:url(#SVGID_10_);}
	.st14{fill:url(#SVGID_11_);}
	.st15{fill:url(#SVGID_12_);}
	.st16{fill:url(#SVGID_13_);}
	.st17{fill:url(#SVGID_14_);}
	.st18{fill:url(#SVGID_15_);}
	.st19{fill:url(#SVGID_16_);}
	.st20{fill:url(#SVGID_17_);}
	.st21{fill:url(#SVGID_18_);}
	.st22{fill:url(#SVGID_19_);}
	.st23{fill:url(#SVGID_20_);}
	.st24{fill:url(#SVGID_21_);}
	.st25{fill:url(#SVGID_22_);}
	.st26{fill:url(#SVGID_23_);}
	.st27{fill:url(#SVGID_24_);}
	.st28{fill:url(#SVGID_25_);}
	.st29{fill:url(#SVGID_26_);}
	.st30{fill:url(#SVGID_27_);}
	.st31{opacity:0.2;enable-background:new    ;}
	.st32{fill:url(#SVGID_28_);}
	.st33{fill:url(#SVGID_29_);}
	.st34{fill:url(#SVGID_30_);}
	.st35{fill:url(#SVGID_31_);}
	.st36{fill:url(#SVGID_32_);}
	.st37{fill:url(#SVGID_33_);}
	.st38{opacity:0.12;enable-background:new    ;}
	.st39{fill:url(#SVGID_34_);}
	.st40{fill:url(#SVGID_35_);}
	.st41{fill:url(#SVGID_36_);}
	.st42{fill:url(#SVGID_37_);}
	.st43{fill:url(#SVGID_38_);}
	.st44{fill:url(#SVGID_39_);}
	.st45{fill:url(#SVGID_40_);}
	.st46{opacity:0.25;fill:#FFFFFF;enable-background:new    ;}
	.st47{fill:url(#SVGID_41_);}
	.st48{fill:url(#SVGID_42_);}
	.st49{fill:url(#SVGID_43_);}
	.st50{fill:url(#SVGID_44_);}
	.st51{fill:url(#SVGID_45_);}
	.st52{fill:url(#SVGID_46_);}
	.st53{fill:url(#SVGID_47_);}
	.st54{fill:url(#SVGID_48_);}
</style>
<g>
	<path class="st0" d="M135,5v30v0c0,2.8-2.2,5-5,5H5c-2.8,0-5-2.2-5-5v0V5v0c0-2.8,2.2-5,5-5h125C132.8,0,135,2.2,135,5L135,5z"/>
	<g>
		<path d="M77.4,23.4c-1.3,0-2.4,1.1-2.4,2.6c0,1.5,1.1,2.6,2.4,2.6c1.3,0,2.3-1.1,2.3-2.6C79.7,24.5,78.7,23.4,77.4,23.4z"/>
	</g>
	<g>
		<path d="M101.9,19.2h-2.7v4.3h2.7c1.4,0,2.2-1.2,2.2-2.1C104,20.4,103.2,19.2,101.9,19.2z"/>
	</g>
	<g>
		<path d="M89.5,23.4c-1,0-2.3,0.8-2.2,2.5l3.8-1.6C90.8,23.8,90.2,23.4,89.5,23.4z"/>
	</g>
	<g>
		<path d="M71.4,12.4c0.6,0,1.2-0.2,1.6-0.7c0.4-0.4,0.7-1,0.7-1.7S73.5,8.7,73,8.3c-0.4-0.4-1-0.7-1.6-0.7c-0.6,0-1.2,0.2-1.6,0.7
			c-0.4,0.4-0.7,1-0.7,1.7s0.2,1.3,0.7,1.7C70.2,12.2,70.8,12.4,71.4,12.4z"/>
	</g>
	<g>
		<path d="M58.8,23.4c-1.3,0-2.4,1-2.4,2.6c0,1.5,1.1,2.6,2.4,2.6c1.3,0,2.4-1.1,2.4-2.6C61.2,24.5,60.1,23.4,58.8,23.4z"/>
	</g>
	<g>
		<path d="M68.1,23.4c-1.3,0-2.4,1-2.4,2.6c0,1.5,1.1,2.6,2.4,2.6c1.3,0,2.4-1.1,2.4-2.6C70.5,24.5,69.4,23.4,68.1,23.4z"/>
	</g>
	<g>
		<path d="M111.7,27.5c0,0.8,0.9,1.1,1.5,1.1c1.1,0,2.1-0.8,2.2-2c-0.5-0.2-0.9-0.4-1.7-0.4C112.8,26.2,111.7,26.6,111.7,27.5z"/>
	</g>
	<g>
		<g>
			<path d="M130,0.8H5C2.7,0.8,0.8,2.7,0.8,5v30c0,2.3,1.9,4.2,4.2,4.2h125c2.3,0,4.2-1.9,4.2-4.2V5C134.2,2.7,132.3,0.8,130,0.8z
				 M75.6,7h0.9l2.9,4.7h0l0-1.2V7h0.8v6h-0.8l-3.1-4.9h0l0,1.2V13h-0.8V7z M69.2,7.8c0.6-0.6,1.3-0.9,2.2-0.9
				c0.9,0,1.6,0.3,2.2,0.9c0.6,0.6,0.9,1.3,0.9,2.2c0,0.9-0.3,1.6-0.9,2.2c-0.6,0.6-1.3,0.9-2.2,0.9s-1.6-0.3-2.2-0.9
				c-0.6-0.6-0.9-1.3-0.9-2.2S68.6,8.4,69.2,7.8z M59.9,7h0.8v6h-0.8V7z M48.5,7H52v0.7h-2.7v1.9h2.5v0.7h-2.5v1.9H52V13h-3.5V7z
				 M42.3,7.8c0.6-0.6,1.3-0.9,2.2-0.9c0.4,0,0.8,0.1,1.2,0.3c0.4,0.2,0.7,0.4,0.9,0.7l-0.5,0.5c-0.4-0.5-0.9-0.7-1.6-0.7
				c-0.6,0-1.2,0.2-1.6,0.7c-0.5,0.4-0.7,1-0.7,1.7c0,0.7,0.2,1.3,0.7,1.7c0.5,0.4,1,0.7,1.6,0.7c0.7,0,1.2-0.2,1.7-0.7
				c0.3-0.3,0.5-0.7,0.5-1.2h-2.2V9.8h2.9c0,0.2,0,0.3,0,0.5c0,0.8-0.2,1.5-0.7,2c-0.6,0.6-1.3,0.9-2.2,0.9c-0.9,0-1.6-0.3-2.2-0.9
				c-0.6-0.6-0.9-1.3-0.9-2.2C41.4,9.1,41.7,8.4,42.3,7.8z M33.1,20C33.1,20,33.1,20,33.1,20c0,0.2-0.1,0.4-0.1,0.5
				c-0.2,0.3-0.5,0.6-0.9,0.9l-4.9,2.8L27,24.3l0,0l-14.5,8.2c-0.2,0.1-0.4,0.2-0.6,0.3c-0.1,0-0.1,0-0.2,0c-0.1,0-0.3,0-0.4,0
				c-0.1,0-0.1,0-0.2,0c-0.1,0-0.2,0-0.3-0.1c-0.1,0-0.1-0.1-0.2-0.1c-0.1,0-0.1-0.1-0.2-0.1l0,0l-0.1-0.1c-0.3-0.3-0.5-0.8-0.5-1.4
				v0v-0.1V9.1V8.9v0c0-0.2,0-0.3,0-0.5c0,0,0-0.1,0-0.1c0-0.1,0.1-0.2,0.1-0.3c0,0,0-0.1,0.1-0.1c0-0.1,0.1-0.2,0.2-0.2
				c0,0,0-0.1,0.1-0.1c0,0,0,0,0,0l0.1-0.1l0,0c0.1-0.1,0.2-0.1,0.3-0.2c0,0,0.1,0,0.1-0.1c0.1,0,0.2-0.1,0.3-0.1c0.1,0,0.1,0,0.2,0
				c0.1,0,0.2,0,0.4,0c0.1,0,0.1,0,0.2,0c0.2,0.1,0.4,0.1,0.6,0.2c0,0,0,0,0,0l14.6,8.3l0,0l4.9,2.8C32.7,19,33.1,19.5,33.1,20
				C33.1,20,33.1,20,33.1,20C33.1,20,33.1,20,33.1,20z M52.4,28.4c-1.2,1.2-2.6,1.9-4.6,1.9c-3.6,0-6.7-3-6.7-6.6
				c0-3.6,3.1-6.6,6.7-6.6c2,0,3.4,0.8,4.5,1.8L51,20.1c-0.8-0.7-1.8-1.3-3.3-1.3c-2.7,0-4.7,2.1-4.7,4.8s2.1,4.8,4.7,4.8
				c1.7,0,2.7-0.7,3.3-1.3c0.5-0.5,0.9-1.3,1-2.3h-4.3v-1.8h6.1c0.1,0.3,0.1,0.7,0.1,1.1C53.9,25.5,53.5,27.2,52.4,28.4z M52.8,7.7
				V7H57v0.7h-1.7V13h-0.8V7.7H52.8z M58.8,30.3c-2.4,0-4.3-1.8-4.3-4.3c0-2.5,1.9-4.3,4.3-4.3c2.4,0,4.3,1.8,4.3,4.3
				C63.1,28.5,61.2,30.3,58.8,30.3z M61.7,7.7V7h4.1v0.7h-1.7V13h-0.8V7.7H61.7z M68.1,30.3c-2.4,0-4.3-1.8-4.3-4.3
				c0-2.5,1.9-4.3,4.3-4.3c2.4,0,4.3,1.8,4.3,4.3C72.4,28.5,70.5,30.3,68.1,30.3z M81.3,29.6c0,3.1-1.9,4.4-4,4.4
				c-2.1,0-3.3-1.4-3.8-2.5l1.6-0.7c0.3,0.7,1,1.5,2.1,1.5c1.4,0,2.3-0.9,2.3-2.5v-0.6h-0.1c-0.4,0.5-1.2,1-2.2,1
				c-2.1,0-4.1-1.9-4.1-4.2c0-2.4,1.9-4.3,4.1-4.3c1,0,1.8,0.5,2.2,1h0.1V22h1.8V29.6z M84.5,30h-1.9V17.5h1.9V30z M89.6,28.6
				c1,0,1.6-0.5,2.1-1.2l1.4,1c-0.5,0.7-1.6,1.9-3.5,1.9c-2.4,0-4.2-1.9-4.2-4.3c0-2.5,1.8-4.3,4-4.3c2.2,0,3.3,1.8,3.6,2.7l0.2,0.5
				l-5.7,2.4C88,28.1,88.7,28.6,89.6,28.6z M101.8,25.3h-2.6V30h-1.9V17.5h4.5c2.1,0,4.1,1.5,4.1,3.9
				C105.9,23.8,103.9,25.3,101.8,25.3z M108.8,30h-1.9V17.5h1.9V30z M117.2,30h-1.8v-1h-0.1c-0.4,0.7-1.1,1.2-2.4,1.2
				c-1.6,0-3.1-1.1-3.1-2.8c0-1.8,1.8-2.8,3.6-2.8c0.9,0,1.6,0.3,1.9,0.5V25c0-1-1-1.6-2-1.6c-0.7,0-1.4,0.2-1.7,0.9l-1.7-0.7
				c0.6-1.3,2-1.9,3.3-1.9c2.1,0,3.8,1.2,3.8,3.5V30z M120.7,33.8h-1.9l1.9-4.2l-3.3-7.6h2l2.2,5.4h0.1l2.1-5.4h2.1L120.7,33.8z"/>
		</g>
	</g>
	<g>
		<path d="M130,0H5C2.2,0,0,2.2,0,5v0c0-2.8,2.2-5,5-5L130,0c2.8,0,5,2.3,5,5v0C135,2.2,132.8,0,130,0z"/>
	</g>
	<path class="st1" d="M130,40H5c-2.8,0-5-2.2-5-5v0c0,2.8,2.2,5,5,5L130,40c2.8,0,5-2.2,5-5v0C135,37.8,132.8,40,130,40z"/>
	<path class="st1" d="M130,0H5C2.2,0,0,2.3,0,5v30c0,2.8,2.2,5,5,5h125c2.8,0,5-2.2,5-5V5C135,2.3,132.8,0,130,0z M134.2,35
		c0,2.3-1.9,4.2-4.2,4.2H5c-2.3,0-4.2-1.9-4.2-4.2V5c0-2.3,1.9-4.2,4.2-4.2h125c2.3,0,4.2,1.9,4.2,4.2V35z"/>
	<path class="st2" d="M44.5,13.1c0.9,0,1.6-0.3,2.2-0.9c0.5-0.5,0.7-1.2,0.7-2c0-0.1,0-0.3,0-0.5h-2.9v0.7h2.2
		c0,0.5-0.2,0.9-0.5,1.2c-0.4,0.4-1,0.7-1.7,0.7c-0.6,0-1.2-0.2-1.6-0.7c-0.5-0.4-0.7-1-0.7-1.7c0-0.7,0.2-1.3,0.7-1.7
		c0.5-0.4,1-0.7,1.6-0.7c0.7,0,1.2,0.2,1.6,0.7l0.5-0.5c-0.2-0.3-0.5-0.5-0.9-0.7c-0.4-0.2-0.8-0.3-1.2-0.3c-0.9,0-1.6,0.3-2.2,0.9
		c-0.6,0.6-0.9,1.3-0.9,2.2c0,0.9,0.3,1.6,0.9,2.2C42.9,12.8,43.6,13.1,44.5,13.1z"/>
	<polygon class="st2" points="52,12.3 49.3,12.3 49.3,10.4 51.8,10.4 51.8,9.6 49.3,9.6 49.3,7.7 52,7.7 52,7 48.5,7 48.5,13 52,13 
			"/>
	<polygon class="st2" points="55.3,13 55.3,7.7 57,7.7 57,7 52.8,7 52.8,7.7 54.5,7.7 54.5,13 	"/>
	<rect x="59.9" y="7" class="st2" width="0.8" height="6"/>
	<polygon class="st2" points="64.1,13 64.1,7.7 65.8,7.7 65.8,7 61.7,7 61.7,7.7 63.4,7.7 63.4,13 	"/>
	<path class="st2" d="M71.4,13.1c0.9,0,1.6-0.3,2.2-0.9c0.6-0.6,0.9-1.3,0.9-2.2c0-0.9-0.3-1.6-0.9-2.2c-0.6-0.6-1.3-0.9-2.2-0.9
		c-0.9,0-1.6,0.3-2.2,0.9c-0.6,0.6-0.9,1.3-0.9,2.2s0.3,1.6,0.9,2.2C69.8,12.8,70.5,13.1,71.4,13.1z M69.8,8.3
		c0.4-0.4,1-0.7,1.6-0.7c0.6,0,1.2,0.2,1.6,0.7c0.4,0.4,0.7,1,0.7,1.7s-0.2,1.3-0.7,1.7c-0.4,0.4-1,0.7-1.6,0.7
		c-0.6,0-1.2-0.2-1.6-0.7c-0.4-0.4-0.7-1-0.7-1.7S69.3,8.7,69.8,8.3z"/>
	<polygon class="st2" points="76.3,9.3 76.3,8.1 76.3,8.1 79.4,13 80.2,13 80.2,7 79.4,7 79.4,10.5 79.5,11.7 79.4,11.7 76.5,7 
		75.6,7 75.6,13 76.3,13 	"/>
	<path class="st3" d="M113.4,21.7c-1.4,0-2.8,0.6-3.3,1.9l1.7,0.7c0.4-0.7,1-0.9,1.7-0.9c1,0,1.9,0.6,2,1.6v0.1
		c-0.3-0.2-1.1-0.5-1.9-0.5c-1.8,0-3.6,1-3.6,2.8c0,1.7,1.5,2.8,3.1,2.8c1.3,0,1.9-0.6,2.4-1.2h0.1v1h1.8v-4.8
		C117.2,23,115.5,21.7,113.4,21.7z M113.2,28.6c-0.6,0-1.5-0.3-1.5-1.1c0-1,1.1-1.3,2-1.3c0.8,0,1.2,0.2,1.7,0.4
		C115.2,27.8,114.2,28.6,113.2,28.6z"/>
	<path class="st3" d="M79.6,22.7L79.6,22.7c-0.5-0.5-1.3-1-2.3-1c-2.1,0-4.1,1.9-4.1,4.3c0,2.4,1.9,4.2,4.1,4.2c1,0,1.8-0.5,2.2-1
		h0.1v0.6c0,1.6-0.9,2.5-2.3,2.5c-1.1,0-1.9-0.8-2.1-1.5l-1.6,0.7c0.5,1.1,1.7,2.5,3.8,2.5c2.2,0,4-1.3,4-4.4V22h-1.8V22.7z
		 M77.4,28.6c-1.3,0-2.4-1.1-2.4-2.6c0-1.5,1.1-2.6,2.4-2.6c1.3,0,2.3,1.1,2.3,2.6C79.7,27.5,78.7,28.6,77.4,28.6z"/>
	<path class="st3" d="M101.8,17.5h-4.5V30h1.9v-4.7h2.6c2.1,0,4.1-1.5,4.1-3.9C105.9,19,103.9,17.5,101.8,17.5z M101.9,23.5h-2.7
		v-4.3h2.7c1.4,0,2.2,1.2,2.2,2.1C104,22.4,103.2,23.5,101.9,23.5z"/>
	<rect x="82.6" y="17.5" class="st3" width="1.9" height="12.5"/>
	<rect x="106.9" y="17.5" class="st3" width="1.9" height="12.5"/>
	<path class="st3" d="M58.8,21.8c-2.4,0-4.3,1.8-4.3,4.3c0,2.4,1.9,4.3,4.3,4.3c2.4,0,4.3-1.8,4.3-4.3
		C63.1,23.5,61.2,21.8,58.8,21.8z M58.8,28.6c-1.3,0-2.4-1.1-2.4-2.6c0-1.5,1.1-2.6,2.4-2.6c1.3,0,2.4,1,2.4,2.6
		C61.2,27.5,60.1,28.6,58.8,28.6z"/>
	<path class="st3" d="M93.1,24.5c-0.4-1-1.4-2.7-3.6-2.7c-2.2,0-4,1.7-4,4.3c0,2.4,1.8,4.3,4.2,4.3c1.9,0,3.1-1.2,3.5-1.9l-1.4-1
		c-0.5,0.7-1.1,1.2-2.1,1.2c-1,0-1.6-0.4-2.1-1.3l5.7-2.4L93.1,24.5z M87.3,25.9c0-1.6,1.3-2.5,2.2-2.5c0.7,0,1.4,0.4,1.6,0.9
		L87.3,25.9z"/>
	<polygon class="st3" points="121.6,27.4 121.5,27.4 119.3,22 117.3,22 120.6,29.6 118.7,33.8 120.7,33.8 125.8,22 123.7,22 	"/>
	<path class="st3" d="M47.7,23.1v1.8h4.3c-0.1,1-0.5,1.8-1,2.3c-0.6,0.6-1.6,1.3-3.3,1.3c-2.7,0-4.7-2.1-4.7-4.8s2.1-4.8,4.7-4.8
		c1.4,0,2.5,0.6,3.3,1.3l1.3-1.3c-1.1-1-2.5-1.8-4.5-1.8c-3.6,0-6.7,3-6.7,6.6c0,3.6,3.1,6.6,6.7,6.6c2,0,3.4-0.6,4.6-1.9
		c1.2-1.2,1.6-2.9,1.6-4.2c0-0.4,0-0.8-0.1-1.1H47.7z"/>
	<path class="st3" d="M68.1,21.8c-2.4,0-4.3,1.8-4.3,4.3c0,2.4,1.9,4.3,4.3,4.3c2.4,0,4.3-1.8,4.3-4.3
		C72.4,23.5,70.5,21.8,68.1,21.8z M68.1,28.6c-1.3,0-2.4-1.1-2.4-2.6c0-1.5,1.1-2.6,2.4-2.6c1.3,0,2.4,1,2.4,2.6
		C70.5,27.5,69.4,28.6,68.1,28.6z"/>
	<g>
		<path d="M10.4,7.5C10.4,7.5,10.4,7.5,10.4,7.5C10.4,7.5,10.4,7.5,10.4,7.5L10.4,7.5z"/>
	</g>
	
		<linearGradient id="SVGID_1_" gradientUnits="userSpaceOnUse" x1="15.5333" y1="52.1967" x2="-1.2491" y2="35.4143" gradientTransform="matrix(1 0 0 -1 0 54.6403)">
		<stop  offset="0" style="stop-color:#00A0FF"/>
		<stop  offset="6.574450e-03" style="stop-color:#00A1FF"/>
		<stop  offset="0.2601" style="stop-color:#00BEFF"/>
		<stop  offset="0.5122" style="stop-color:#00D2FF"/>
		<stop  offset="0.7604" style="stop-color:#00DFFF"/>
		<stop  offset="1" style="stop-color:#00E3FF"/>
	</linearGradient>
	<path class="st4" d="M10.4,7.5C10.4,7.5,10.4,7.5,10.4,7.5C10.4,7.5,10.4,7.5,10.4,7.5L10.4,7.5z"/>
	<g>
		<path d="M10.2,7.9c0-0.1,0.1-0.2,0.2-0.2C10.3,7.7,10.3,7.8,10.2,7.9z"/>
	</g>
	
		<linearGradient id="SVGID_2_" gradientUnits="userSpaceOnUse" x1="15.565" y1="52.165" x2="-1.2174" y2="35.3826" gradientTransform="matrix(1 0 0 -1 0 54.6403)">
		<stop  offset="0" style="stop-color:#00A0FF"/>
		<stop  offset="6.574450e-03" style="stop-color:#00A1FF"/>
		<stop  offset="0.2601" style="stop-color:#00BEFF"/>
		<stop  offset="0.5122" style="stop-color:#00D2FF"/>
		<stop  offset="0.7604" style="stop-color:#00DFFF"/>
		<stop  offset="1" style="stop-color:#00E3FF"/>
	</linearGradient>
	<path class="st5" d="M10.2,7.9c0-0.1,0.1-0.2,0.2-0.2C10.3,7.7,10.3,7.8,10.2,7.9z"/>
	<g>
		<path d="M10,8.9L10,8.9c0-0.2,0-0.3,0-0.5C10,8.6,10,8.8,10,8.9z"/>
	</g>
	
		<linearGradient id="SVGID_3_" gradientUnits="userSpaceOnUse" x1="15.8888" y1="51.8413" x2="-0.8936" y2="35.0589" gradientTransform="matrix(1 0 0 -1 0 54.6403)">
		<stop  offset="0" style="stop-color:#00A0FF"/>
		<stop  offset="6.574450e-03" style="stop-color:#00A1FF"/>
		<stop  offset="0.2601" style="stop-color:#00BEFF"/>
		<stop  offset="0.5122" style="stop-color:#00D2FF"/>
		<stop  offset="0.7604" style="stop-color:#00DFFF"/>
		<stop  offset="1" style="stop-color:#00E3FF"/>
	</linearGradient>
	<path class="st6" d="M10,8.9L10,8.9c0-0.2,0-0.3,0-0.5C10,8.6,10,8.8,10,8.9z"/>
	<g>
		<path d="M10.5,7.5L10.5,7.5L10.5,7.5C10.5,7.5,10.5,7.5,10.5,7.5C10.5,7.5,10.5,7.5,10.5,7.5z"/>
	</g>
	
		<linearGradient id="SVGID_4_" gradientUnits="userSpaceOnUse" x1="15.5369" y1="52.1931" x2="-1.2455" y2="35.4107" gradientTransform="matrix(1 0 0 -1 0 54.6403)">
		<stop  offset="0" style="stop-color:#00A0FF"/>
		<stop  offset="6.574450e-03" style="stop-color:#00A1FF"/>
		<stop  offset="0.2601" style="stop-color:#00BEFF"/>
		<stop  offset="0.5122" style="stop-color:#00D2FF"/>
		<stop  offset="0.7604" style="stop-color:#00DFFF"/>
		<stop  offset="1" style="stop-color:#00E3FF"/>
	</linearGradient>
	<path class="st7" d="M10.5,7.5L10.5,7.5L10.5,7.5C10.5,7.5,10.5,7.5,10.5,7.5C10.5,7.5,10.5,7.5,10.5,7.5z"/>
	<g>
		<path d="M10.5,32.4L22.9,20L10.5,7.6C10.2,7.9,10,8.4,10,9.1v21.8C10,31.5,10.1,32,10.5,32.4L10.5,32.4z"/>
	</g>
	
		<linearGradient id="SVGID_5_" gradientUnits="userSpaceOnUse" x1="21.8043" y1="45.9258" x2="5.0219" y2="29.1434" gradientTransform="matrix(1 0 0 -1 0 54.6403)">
		<stop  offset="0" style="stop-color:#00A0FF"/>
		<stop  offset="6.574450e-03" style="stop-color:#00A1FF"/>
		<stop  offset="0.2601" style="stop-color:#00BEFF"/>
		<stop  offset="0.5122" style="stop-color:#00D2FF"/>
		<stop  offset="0.7604" style="stop-color:#00DFFF"/>
		<stop  offset="1" style="stop-color:#00E3FF"/>
	</linearGradient>
	<path class="st8" d="M10.5,32.4L22.9,20L10.5,7.6C10.2,7.9,10,8.4,10,9.1v21.8C10,31.5,10.1,32,10.5,32.4L10.5,32.4z"/>
	<g>
		<path d="M10.1,8.3c0-0.1,0.1-0.2,0.1-0.3C10.1,8.1,10.1,8.2,10.1,8.3z"/>
	</g>
	
		<linearGradient id="SVGID_6_" gradientUnits="userSpaceOnUse" x1="15.6717" y1="52.0583" x2="-1.1107" y2="35.2759" gradientTransform="matrix(1 0 0 -1 0 54.6403)">
		<stop  offset="0" style="stop-color:#00A0FF"/>
		<stop  offset="6.574450e-03" style="stop-color:#00A1FF"/>
		<stop  offset="0.2601" style="stop-color:#00BEFF"/>
		<stop  offset="0.5122" style="stop-color:#00D2FF"/>
		<stop  offset="0.7604" style="stop-color:#00DFFF"/>
		<stop  offset="1" style="stop-color:#00E3FF"/>
	</linearGradient>
	<path class="st9" d="M10.1,8.3c0-0.1,0.1-0.2,0.1-0.3C10.1,8.1,10.1,8.2,10.1,8.3z"/>
	<g>
		<path d="M32,21.4l-4.9,2.8L27,24.3l0,0l0.1-0.1L32,21.4c0.5-0.3,0.7-0.6,0.9-0.9C32.8,20.9,32.5,21.2,32,21.4z"/>
	</g>
	
		<linearGradient id="SVGID_7_" gradientUnits="userSpaceOnUse" x1="33.8343" y1="32.2309" x2="9.6374" y2="32.2309" gradientTransform="matrix(1 0 0 -1 0 54.6403)">
		<stop  offset="0" style="stop-color:#FFE000"/>
		<stop  offset="0.4087" style="stop-color:#FFBD00"/>
		<stop  offset="0.7754" style="stop-color:#FFA500"/>
		<stop  offset="1" style="stop-color:#FF9C00"/>
	</linearGradient>
	<path class="st10" d="M32,21.4l-4.9,2.8L27,24.3l0,0l0.1-0.1L32,21.4c0.5-0.3,0.7-0.6,0.9-0.9C32.8,20.9,32.5,21.2,32,21.4z"/>
	<g>
		<path d="M32,18.7l-5-2.8L22.9,20l4.1,4.1l5-2.8c0.6-0.4,1-0.8,1-1.3c0,0,0,0,0,0C33,19.5,32.6,19.1,32,18.7z"/>
	</g>
	
		<linearGradient id="SVGID_8_" gradientUnits="userSpaceOnUse" x1="33.8343" y1="34.6391" x2="9.6374" y2="34.6391" gradientTransform="matrix(1 0 0 -1 0 54.6403)">
		<stop  offset="0" style="stop-color:#FFE000"/>
		<stop  offset="0.4087" style="stop-color:#FFBD00"/>
		<stop  offset="0.7754" style="stop-color:#FFA500"/>
		<stop  offset="1" style="stop-color:#FF9C00"/>
	</linearGradient>
	<path class="st11" d="M32,18.7l-5-2.8L22.9,20l4.1,4.1l5-2.8c0.6-0.4,1-0.8,1-1.3c0,0,0,0,0,0C33,19.5,32.6,19.1,32,18.7z"/>
	<g>
		<path d="M10.6,32.4c0.5,0.4,1.1,0.4,1.9-0.1l14.4-8.2l-4-4L10.6,32.4z"/>
	</g>
	
		<linearGradient id="SVGID_9_" gradientUnits="userSpaceOnUse" x1="24.8067" y1="32.3642" x2="2.0484" y2="9.6059" gradientTransform="matrix(1 0 0 -1 0 54.6403)">
		<stop  offset="0" style="stop-color:#FF3A44"/>
		<stop  offset="1" style="stop-color:#C31162"/>
	</linearGradient>
	<path class="st12" d="M10.6,32.4c0.5,0.4,1.1,0.4,1.9-0.1l14.4-8.2l-4-4L10.6,32.4z"/>
	<g>
		<path d="M11.4,32.9c-0.1,0-0.1,0-0.2,0C11.2,32.8,11.3,32.9,11.4,32.9z"/>
	</g>
	
		<linearGradient id="SVGID_10_" gradientUnits="userSpaceOnUse" x1="23.3116" y1="33.8592" x2="0.5534" y2="11.101" gradientTransform="matrix(1 0 0 -1 0 54.6403)">
		<stop  offset="0" style="stop-color:#FF3A44"/>
		<stop  offset="1" style="stop-color:#C31162"/>
	</linearGradient>
	<path class="st13" d="M11.4,32.9c-0.1,0-0.1,0-0.2,0C11.2,32.8,11.3,32.9,11.4,32.9z"/>
	<g>
		<path d="M11.9,32.8c-0.1,0-0.1,0-0.2,0C11.8,32.8,11.8,32.8,11.9,32.8z"/>
	</g>
	
		<linearGradient id="SVGID_11_" gradientUnits="userSpaceOnUse" x1="23.5709" y1="33.5999" x2="0.8127" y2="10.8417" gradientTransform="matrix(1 0 0 -1 0 54.6403)">
		<stop  offset="0" style="stop-color:#FF3A44"/>
		<stop  offset="1" style="stop-color:#C31162"/>
	</linearGradient>
	<path class="st14" d="M11.9,32.8c-0.1,0-0.1,0-0.2,0C11.8,32.8,11.8,32.8,11.9,32.8z"/>
	<g>
		<path d="M10.9,32.8c-0.1,0-0.1-0.1-0.2-0.1C10.8,32.7,10.8,32.7,10.9,32.8z"/>
	</g>
	
		<linearGradient id="SVGID_12_" gradientUnits="userSpaceOnUse" x1="23.008" y1="34.1629" x2="0.2497" y2="11.4046" gradientTransform="matrix(1 0 0 -1 0 54.6403)">
		<stop  offset="0" style="stop-color:#FF3A44"/>
		<stop  offset="1" style="stop-color:#C31162"/>
	</linearGradient>
	<path class="st15" d="M10.9,32.8c-0.1,0-0.1-0.1-0.2-0.1C10.8,32.7,10.8,32.7,10.9,32.8z"/>
	<g>
		<path d="M10.5,32.4C10.5,32.4,10.6,32.4,10.5,32.4l12.4-12.2V20L10.5,32.4L10.5,32.4z"/>
	</g>
	
		<linearGradient id="SVGID_13_" gradientUnits="userSpaceOnUse" x1="28.0311" y1="39.6989" x2="11.2487" y2="22.9165" gradientTransform="matrix(1 0 0 -1 0 54.6403)">
		<stop  offset="0" style="stop-color:#00A0FF"/>
		<stop  offset="6.574450e-03" style="stop-color:#00A1FF"/>
		<stop  offset="0.2601" style="stop-color:#00BEFF"/>
		<stop  offset="0.5122" style="stop-color:#00D2FF"/>
		<stop  offset="0.7604" style="stop-color:#00DFFF"/>
		<stop  offset="1" style="stop-color:#00E3FF"/>
	</linearGradient>
	<path class="st16" d="M10.5,32.4C10.5,32.4,10.6,32.4,10.5,32.4l12.4-12.2V20L10.5,32.4L10.5,32.4z"/>
	
		<linearGradient id="SVGID_14_" gradientUnits="userSpaceOnUse" x1="22.7515" y1="34.4194" x2="-6.765872e-03" y2="11.6611" gradientTransform="matrix(1 0 0 -1 0 54.6403)">
		<stop  offset="0" style="stop-color:#FF3A44"/>
		<stop  offset="1" style="stop-color:#C31162"/>
	</linearGradient>
	<path class="st17" d="M10.5,32.4C10.5,32.4,10.6,32.4,10.5,32.4l12.4-12.2V20L10.5,32.4L10.5,32.4z"/>
	<g>
		<polygon points="26.9,24.2 27,24.1 27,24.1 22.9,20 22.9,20.1 		"/>
	</g>
	
		<linearGradient id="SVGID_15_" gradientUnits="userSpaceOnUse" x1="33.8343" y1="32.547" x2="9.6374" y2="32.547" gradientTransform="matrix(1 0 0 -1 0 54.6403)">
		<stop  offset="0" style="stop-color:#FFE000"/>
		<stop  offset="0.4087" style="stop-color:#FFBD00"/>
		<stop  offset="0.7754" style="stop-color:#FFA500"/>
		<stop  offset="1" style="stop-color:#FF9C00"/>
	</linearGradient>
	<polygon class="st18" points="26.9,24.2 27,24.1 27,24.1 22.9,20 22.9,20.1 	"/>
	
		<linearGradient id="SVGID_16_" gradientUnits="userSpaceOnUse" x1="24.7804" y1="32.3905" x2="2.0221" y2="9.6322" gradientTransform="matrix(1 0 0 -1 0 54.6403)">
		<stop  offset="0" style="stop-color:#FF3A44"/>
		<stop  offset="1" style="stop-color:#C31162"/>
	</linearGradient>
	<polygon class="st19" points="26.9,24.2 27,24.1 27,24.1 22.9,20 22.9,20.1 	"/>
	<g>
		<path d="M10.8,7.3c0,0,0.1,0,0.1-0.1C10.9,7.2,10.8,7.3,10.8,7.3z"/>
	</g>
	
		<linearGradient id="SVGID_17_" gradientUnits="userSpaceOnUse" x1="5.5378" y1="52.7045" x2="15.7003" y2="42.542" gradientTransform="matrix(1 0 0 -1 0 54.6403)">
		<stop  offset="0" style="stop-color:#32A071"/>
		<stop  offset="6.850000e-02" style="stop-color:#2DA771"/>
		<stop  offset="0.4762" style="stop-color:#15CF74"/>
		<stop  offset="0.8009" style="stop-color:#06E775"/>
		<stop  offset="1" style="stop-color:#00F076"/>
	</linearGradient>
	<path class="st20" d="M10.8,7.3c0,0,0.1,0,0.1-0.1C10.9,7.2,10.8,7.3,10.8,7.3z"/>
	<g>
		<path d="M11.2,7.2c0.1,0,0.1,0,0.2,0C11.4,7.2,11.3,7.2,11.2,7.2z"/>
	</g>
	
		<linearGradient id="SVGID_18_" gradientUnits="userSpaceOnUse" x1="5.8201" y1="52.9869" x2="15.9826" y2="42.8243" gradientTransform="matrix(1 0 0 -1 0 54.6403)">
		<stop  offset="0" style="stop-color:#32A071"/>
		<stop  offset="6.850000e-02" style="stop-color:#2DA771"/>
		<stop  offset="0.4762" style="stop-color:#15CF74"/>
		<stop  offset="0.8009" style="stop-color:#06E775"/>
		<stop  offset="1" style="stop-color:#00F076"/>
	</linearGradient>
	<path class="st21" d="M11.2,7.2c0.1,0,0.1,0,0.2,0C11.4,7.2,11.3,7.2,11.2,7.2z"/>
	<g>
		<path d="M11.8,7.2c0.1,0,0.1,0,0.2,0C11.9,7.2,11.8,7.2,11.8,7.2z"/>
	</g>
	
		<linearGradient id="SVGID_19_" gradientUnits="userSpaceOnUse" x1="6.0565" y1="53.2232" x2="16.219" y2="43.0607" gradientTransform="matrix(1 0 0 -1 0 54.6403)">
		<stop  offset="0" style="stop-color:#32A071"/>
		<stop  offset="6.850000e-02" style="stop-color:#2DA771"/>
		<stop  offset="0.4762" style="stop-color:#15CF74"/>
		<stop  offset="0.8009" style="stop-color:#06E775"/>
		<stop  offset="1" style="stop-color:#00F076"/>
	</linearGradient>
	<path class="st22" d="M11.8,7.2c0.1,0,0.1,0,0.2,0C11.9,7.2,11.8,7.2,11.8,7.2z"/>
	<g>
		<path d="M27.1,15.8L27.1,15.8L12.5,7.5c0,0,0,0,0,0c0,0,0,0,0,0L27.1,15.8z"/>
	</g>
	
		<linearGradient id="SVGID_20_" gradientUnits="userSpaceOnUse" x1="7.8291" y1="54.9959" x2="17.9916" y2="44.8333" gradientTransform="matrix(1 0 0 -1 0 54.6403)">
		<stop  offset="0" style="stop-color:#32A071"/>
		<stop  offset="6.850000e-02" style="stop-color:#2DA771"/>
		<stop  offset="0.4762" style="stop-color:#15CF74"/>
		<stop  offset="0.8009" style="stop-color:#06E775"/>
		<stop  offset="1" style="stop-color:#00F076"/>
	</linearGradient>
	<path class="st23" d="M27.1,15.8L27.1,15.8L12.5,7.5c0,0,0,0,0,0c0,0,0,0,0,0L27.1,15.8z"/>
	<g>
		<path d="M26.9,15.8L12.5,7.6c-0.8-0.4-1.4-0.4-1.9-0.1l12.3,12.3L26.9,15.8z"/>
	</g>
	
		<linearGradient id="SVGID_21_" gradientUnits="userSpaceOnUse" x1="7.2771" y1="54.4439" x2="17.4396" y2="44.2813" gradientTransform="matrix(1 0 0 -1 0 54.6403)">
		<stop  offset="0" style="stop-color:#32A071"/>
		<stop  offset="6.850000e-02" style="stop-color:#2DA771"/>
		<stop  offset="0.4762" style="stop-color:#15CF74"/>
		<stop  offset="0.8009" style="stop-color:#06E775"/>
		<stop  offset="1" style="stop-color:#00F076"/>
	</linearGradient>
	<path class="st24" d="M26.9,15.8L12.5,7.6c-0.8-0.4-1.4-0.4-1.9-0.1l12.3,12.3L26.9,15.8z"/>
	<g>
		<path d="M10.6,7.6C10.6,7.6,10.5,7.6,10.6,7.6L22.9,20v-0.1L10.6,7.6z"/>
	</g>
	
		<linearGradient id="SVGID_22_" gradientUnits="userSpaceOnUse" x1="21.805" y1="45.925" x2="5.0226" y2="29.1426" gradientTransform="matrix(1 0 0 -1 0 54.6403)">
		<stop  offset="0" style="stop-color:#00A0FF"/>
		<stop  offset="6.574450e-03" style="stop-color:#00A1FF"/>
		<stop  offset="0.2601" style="stop-color:#00BEFF"/>
		<stop  offset="0.5122" style="stop-color:#00D2FF"/>
		<stop  offset="0.7604" style="stop-color:#00DFFF"/>
		<stop  offset="1" style="stop-color:#00E3FF"/>
	</linearGradient>
	<path class="st25" d="M10.6,7.6C10.6,7.6,10.5,7.6,10.6,7.6L22.9,20v-0.1L10.6,7.6z"/>
	
		<linearGradient id="SVGID_23_" gradientUnits="userSpaceOnUse" x1="5.222" y1="52.3887" x2="15.3845" y2="42.2262" gradientTransform="matrix(1 0 0 -1 0 54.6403)">
		<stop  offset="0" style="stop-color:#32A071"/>
		<stop  offset="6.850000e-02" style="stop-color:#2DA771"/>
		<stop  offset="0.4762" style="stop-color:#15CF74"/>
		<stop  offset="0.8009" style="stop-color:#06E775"/>
		<stop  offset="1" style="stop-color:#00F076"/>
	</linearGradient>
	<path class="st26" d="M10.6,7.6C10.6,7.6,10.5,7.6,10.6,7.6L22.9,20v-0.1L10.6,7.6z"/>
	<g>
		<path d="M10.5,7.5C10.5,7.5,10.5,7.5,10.5,7.5L10.5,7.5C10.5,7.5,10.5,7.5,10.5,7.5z"/>
	</g>
	
		<linearGradient id="SVGID_24_" gradientUnits="userSpaceOnUse" x1="15.5358" y1="52.1943" x2="-1.2466" y2="35.4119" gradientTransform="matrix(1 0 0 -1 0 54.6403)">
		<stop  offset="0" style="stop-color:#00A0FF"/>
		<stop  offset="6.574450e-03" style="stop-color:#00A1FF"/>
		<stop  offset="0.2601" style="stop-color:#00BEFF"/>
		<stop  offset="0.5122" style="stop-color:#00D2FF"/>
		<stop  offset="0.7604" style="stop-color:#00DFFF"/>
		<stop  offset="1" style="stop-color:#00E3FF"/>
	</linearGradient>
	<path class="st27" d="M10.5,7.5C10.5,7.5,10.5,7.5,10.5,7.5L10.5,7.5C10.5,7.5,10.5,7.5,10.5,7.5z"/>
	
		<linearGradient id="SVGID_25_" gradientUnits="userSpaceOnUse" x1="5.2103" y1="52.377" x2="15.3728" y2="42.2145" gradientTransform="matrix(1 0 0 -1 0 54.6403)">
		<stop  offset="0" style="stop-color:#32A071"/>
		<stop  offset="6.850000e-02" style="stop-color:#2DA771"/>
		<stop  offset="0.4762" style="stop-color:#15CF74"/>
		<stop  offset="0.8009" style="stop-color:#06E775"/>
		<stop  offset="1" style="stop-color:#00F076"/>
	</linearGradient>
	<path class="st28" d="M10.5,7.5C10.5,7.5,10.5,7.5,10.5,7.5L10.5,7.5C10.5,7.5,10.5,7.5,10.5,7.5z"/>
	<g>
		<polygon points="22.9,19.9 22.9,20 27,15.9 26.9,15.8 		"/>
	</g>
	
		<linearGradient id="SVGID_26_" gradientUnits="userSpaceOnUse" x1="33.8343" y1="36.7309" x2="9.6374" y2="36.7309" gradientTransform="matrix(1 0 0 -1 0 54.6403)">
		<stop  offset="0" style="stop-color:#FFE000"/>
		<stop  offset="0.4087" style="stop-color:#FFBD00"/>
		<stop  offset="0.7754" style="stop-color:#FFA500"/>
		<stop  offset="1" style="stop-color:#FF9C00"/>
	</linearGradient>
	<polygon class="st29" points="22.9,19.9 22.9,20 27,15.9 26.9,15.8 	"/>
	
		<linearGradient id="SVGID_27_" gradientUnits="userSpaceOnUse" x1="7.2506" y1="54.4173" x2="17.4131" y2="44.2548" gradientTransform="matrix(1 0 0 -1 0 54.6403)">
		<stop  offset="0" style="stop-color:#32A071"/>
		<stop  offset="6.850000e-02" style="stop-color:#2DA771"/>
		<stop  offset="0.4762" style="stop-color:#15CF74"/>
		<stop  offset="0.8009" style="stop-color:#06E775"/>
		<stop  offset="1" style="stop-color:#00F076"/>
	</linearGradient>
	<polygon class="st30" points="22.9,19.9 22.9,20 27,15.9 26.9,15.8 	"/>
	<g>
		<path d="M11.7,32.8c-0.1,0-0.3,0-0.4,0C11.5,32.9,11.6,32.8,11.7,32.8z"/>
	</g>
	<path class="st31" d="M11.7,32.8c-0.1,0-0.3,0-0.4,0C11.5,32.9,11.6,32.8,11.7,32.8z"/>
	<g>
		<path d="M11.2,32.8c-0.1,0-0.2,0-0.3-0.1C11,32.8,11.1,32.8,11.2,32.8z"/>
	</g>
	<path class="st31" d="M11.2,32.8c-0.1,0-0.2,0-0.3-0.1C11,32.8,11.1,32.8,11.2,32.8z"/>
	<g>
		<path d="M10.5,32.5L10.5,32.5L10.5,32.5L10.5,32.5L10.5,32.5c0.1,0,0.1,0.1,0.2,0.1C10.6,32.6,10.6,32.6,10.5,32.5L10.5,32.5z"/>
	</g>
	<path class="st31" d="M10.5,32.5L10.5,32.5L10.5,32.5L10.5,32.5L10.5,32.5c0.1,0,0.1,0.1,0.2,0.1C10.6,32.6,10.6,32.6,10.5,32.5
		L10.5,32.5z"/>
	<g>
		<path d="M12.5,32.5c-0.2,0.1-0.4,0.2-0.6,0.3C12.1,32.7,12.3,32.6,12.5,32.5z"/>
	</g>
	<path class="st31" d="M12.5,32.5c-0.2,0.1-0.4,0.2-0.6,0.3C12.1,32.7,12.3,32.6,12.5,32.5z"/>
	<g>
		<path d="M10.4,32.5L10.4,32.5L10.4,32.5C10.5,32.5,10.5,32.5,10.4,32.5L10.4,32.5z"/>
	</g>
	
		<linearGradient id="SVGID_28_" gradientUnits="userSpaceOnUse" x1="28.0312" y1="39.6988" x2="11.2488" y2="22.9164" gradientTransform="matrix(1 0 0 -1 0 54.6403)">
		<stop  offset="0" style="stop-color:#00A0FF"/>
		<stop  offset="6.574450e-03" style="stop-color:#00A1FF"/>
		<stop  offset="0.2601" style="stop-color:#00BEFF"/>
		<stop  offset="0.5122" style="stop-color:#00D2FF"/>
		<stop  offset="0.7604" style="stop-color:#00DFFF"/>
		<stop  offset="1" style="stop-color:#00E3FF"/>
	</linearGradient>
	<path class="st32" d="M10.4,32.5L10.4,32.5L10.4,32.5C10.5,32.5,10.5,32.5,10.4,32.5L10.4,32.5z"/>
	<path class="st31" d="M10.4,32.5L10.4,32.5L10.4,32.5C10.5,32.5,10.5,32.5,10.4,32.5L10.4,32.5z"/>
	<g>
		<path d="M12.5,32.4c-0.8,0.4-1.4,0.4-1.9,0.1l-0.1,0.1c0.1,0,0.1,0.1,0.2,0.1c0.1,0,0.1,0.1,0.2,0.1c0.1,0,0.2,0,0.3,0.1
			c0.1,0,0.1,0,0.2,0c0.1,0,0.2,0,0.4,0c0.1,0,0.1,0,0.2,0c0.2-0.1,0.4-0.1,0.6-0.3L27,24.3l-0.1-0.1L12.5,32.4z"/>
	</g>
	
		<linearGradient id="SVGID_29_" gradientUnits="userSpaceOnUse" x1="24.8532" y1="32.3177" x2="2.0949" y2="9.5594" gradientTransform="matrix(1 0 0 -1 0 54.6403)">
		<stop  offset="0" style="stop-color:#FF3A44"/>
		<stop  offset="1" style="stop-color:#C31162"/>
	</linearGradient>
	<path class="st33" d="M12.5,32.4c-0.8,0.4-1.4,0.4-1.9,0.1l-0.1,0.1c0.1,0,0.1,0.1,0.2,0.1c0.1,0,0.1,0.1,0.2,0.1
		c0.1,0,0.2,0,0.3,0.1c0.1,0,0.1,0,0.2,0c0.1,0,0.2,0,0.4,0c0.1,0,0.1,0,0.2,0c0.2-0.1,0.4-0.1,0.6-0.3L27,24.3l-0.1-0.1L12.5,32.4z
		"/>
	<path class="st31" d="M12.5,32.4c-0.8,0.4-1.4,0.4-1.9,0.1l-0.1,0.1c0.1,0,0.1,0.1,0.2,0.1c0.1,0,0.1,0.1,0.2,0.1
		c0.1,0,0.2,0,0.3,0.1c0.1,0,0.1,0,0.2,0c0.1,0,0.2,0,0.4,0c0.1,0,0.1,0,0.2,0c0.2-0.1,0.4-0.1,0.6-0.3L27,24.3l-0.1-0.1L12.5,32.4z
		"/>
	<g>
		<path d="M10.4,32.5C10.5,32.5,10.5,32.5,10.4,32.5l0.2,0C10.6,32.4,10.5,32.4,10.4,32.5L10.4,32.5z"/>
	</g>
	
		<linearGradient id="SVGID_30_" gradientUnits="userSpaceOnUse" x1="28.0312" y1="39.6989" x2="11.2488" y2="22.9164" gradientTransform="matrix(1 0 0 -1 0 54.6403)">
		<stop  offset="0" style="stop-color:#00A0FF"/>
		<stop  offset="6.574450e-03" style="stop-color:#00A1FF"/>
		<stop  offset="0.2601" style="stop-color:#00BEFF"/>
		<stop  offset="0.5122" style="stop-color:#00D2FF"/>
		<stop  offset="0.7604" style="stop-color:#00DFFF"/>
		<stop  offset="1" style="stop-color:#00E3FF"/>
	</linearGradient>
	<path class="st34" d="M10.4,32.5C10.5,32.5,10.5,32.5,10.4,32.5l0.2,0C10.6,32.4,10.5,32.4,10.4,32.5L10.4,32.5z"/>
	
		<linearGradient id="SVGID_31_" gradientUnits="userSpaceOnUse" x1="22.7516" y1="34.4193" x2="-6.674320e-03" y2="11.661" gradientTransform="matrix(1 0 0 -1 0 54.6403)">
		<stop  offset="0" style="stop-color:#FF3A44"/>
		<stop  offset="1" style="stop-color:#C31162"/>
	</linearGradient>
	<path class="st35" d="M10.4,32.5C10.5,32.5,10.5,32.5,10.4,32.5l0.2,0C10.6,32.4,10.5,32.4,10.4,32.5L10.4,32.5z"/>
	<path class="st31" d="M10.4,32.5C10.5,32.5,10.5,32.5,10.4,32.5l0.2,0C10.6,32.4,10.5,32.4,10.4,32.5L10.4,32.5z"/>
	<g>
		<polygon points="27,24.1 26.9,24.2 27,24.3 27.1,24.2 		"/>
	</g>
	
		<linearGradient id="SVGID_32_" gradientUnits="userSpaceOnUse" x1="33.8343" y1="30.435" x2="9.6374" y2="30.435" gradientTransform="matrix(1 0 0 -1 0 54.6403)">
		<stop  offset="0" style="stop-color:#FFE000"/>
		<stop  offset="0.4087" style="stop-color:#FFBD00"/>
		<stop  offset="0.7754" style="stop-color:#FFA500"/>
		<stop  offset="1" style="stop-color:#FF9C00"/>
	</linearGradient>
	<polygon class="st36" points="27,24.1 26.9,24.2 27,24.3 27.1,24.2 	"/>
	
		<linearGradient id="SVGID_33_" gradientUnits="userSpaceOnUse" x1="26.882" y1="30.2888" x2="4.1238" y2="7.5306" gradientTransform="matrix(1 0 0 -1 0 54.6403)">
		<stop  offset="0" style="stop-color:#FF3A44"/>
		<stop  offset="1" style="stop-color:#C31162"/>
	</linearGradient>
	<polygon class="st37" points="27,24.1 26.9,24.2 27,24.3 27.1,24.2 	"/>
	<polygon class="st31" points="27,24.1 26.9,24.2 27,24.3 27.1,24.2 	"/>
	<g>
		<path d="M10.4,32.5c-0.3-0.3-0.5-0.8-0.5-1.4v0C10,31.7,10.1,32.2,10.4,32.5L10.4,32.5L10.4,32.5z"/>
	</g>
	<path class="st38" d="M10.4,32.5c-0.3-0.3-0.5-0.8-0.5-1.4v0C10,31.7,10.1,32.2,10.4,32.5L10.4,32.5L10.4,32.5z"/>
	<g>
		<polygon points="10.4,32.5 10.4,32.5 10.4,32.5 		"/>
	</g>
	
		<linearGradient id="SVGID_34_" gradientUnits="userSpaceOnUse" x1="10.5575" y1="22.2982" x2="10.3134" y2="22.0541" gradientTransform="matrix(1 0 0 -1 0 54.6403)">
		<stop  offset="0" style="stop-color:#00A0FF"/>
		<stop  offset="6.574450e-03" style="stop-color:#00A1FF"/>
		<stop  offset="0.2601" style="stop-color:#00BEFF"/>
		<stop  offset="0.5122" style="stop-color:#00D2FF"/>
		<stop  offset="0.7604" style="stop-color:#00DFFF"/>
		<stop  offset="1" style="stop-color:#00E3FF"/>
	</linearGradient>
	<polygon class="st39" points="10.4,32.5 10.4,32.5 10.4,32.5 	"/>
	<polygon class="st38" points="10.4,32.5 10.4,32.5 10.4,32.5 	"/>
	<g>
		<path d="M10.5,32.4L10.5,32.4C10.1,32,10,31.5,10,30.9v0.1C10,31.7,10.1,32.2,10.5,32.4L10.5,32.4z"/>
	</g>
	
		<linearGradient id="SVGID_35_" gradientUnits="userSpaceOnUse" x1="27.4912" y1="40.2388" x2="10.7088" y2="23.4564" gradientTransform="matrix(1 0 0 -1 0 54.6403)">
		<stop  offset="0" style="stop-color:#00A0FF"/>
		<stop  offset="6.574450e-03" style="stop-color:#00A1FF"/>
		<stop  offset="0.2601" style="stop-color:#00BEFF"/>
		<stop  offset="0.5122" style="stop-color:#00D2FF"/>
		<stop  offset="0.7604" style="stop-color:#00DFFF"/>
		<stop  offset="1" style="stop-color:#00E3FF"/>
	</linearGradient>
	<path class="st40" d="M10.5,32.4L10.5,32.4C10.1,32,10,31.5,10,30.9v0.1C10,31.7,10.1,32.2,10.5,32.4L10.5,32.4z"/>
	<path class="st38" d="M10.5,32.4L10.5,32.4C10.1,32,10,31.5,10,30.9v0.1C10,31.7,10.1,32.2,10.5,32.4L10.5,32.4z"/>
	<g>
		<polygon points="10.5,32.4 10.5,32.4 10.4,32.5 10.4,32.5 		"/>
	</g>
	
		<linearGradient id="SVGID_36_" gradientUnits="userSpaceOnUse" x1="27.9947" y1="39.7354" x2="11.2123" y2="22.953" gradientTransform="matrix(1 0 0 -1 0 54.6403)">
		<stop  offset="0" style="stop-color:#00A0FF"/>
		<stop  offset="6.574450e-03" style="stop-color:#00A1FF"/>
		<stop  offset="0.2601" style="stop-color:#00BEFF"/>
		<stop  offset="0.5122" style="stop-color:#00D2FF"/>
		<stop  offset="0.7604" style="stop-color:#00DFFF"/>
		<stop  offset="1" style="stop-color:#00E3FF"/>
	</linearGradient>
	<polygon class="st41" points="10.5,32.4 10.5,32.4 10.4,32.5 10.4,32.5 	"/>
	
		<linearGradient id="SVGID_37_" gradientUnits="userSpaceOnUse" x1="22.7151" y1="34.4558" x2="-4.318860e-02" y2="11.6975" gradientTransform="matrix(1 0 0 -1 0 54.6403)">
		<stop  offset="0" style="stop-color:#FF3A44"/>
		<stop  offset="1" style="stop-color:#C31162"/>
	</linearGradient>
	<polygon class="st42" points="10.5,32.4 10.5,32.4 10.4,32.5 10.4,32.5 	"/>
	<polygon class="st38" points="10.5,32.4 10.5,32.4 10.4,32.5 10.4,32.5 	"/>
	<g>
		<path d="M33.1,20C33.1,20,33.1,20,33.1,20c0,0.2-0.1,0.4-0.1,0.5C33,20.4,33.1,20.2,33.1,20z"/>
	</g>
	<path class="st38" d="M33.1,20C33.1,20,33.1,20,33.1,20c0,0.2-0.1,0.4-0.1,0.5C33,20.4,33.1,20.2,33.1,20z"/>
	<g>
		<path d="M32,21.3l-5,2.8l0.1,0.1l4.9-2.8c0.5-0.3,0.7-0.6,0.9-0.9c0.1-0.2,0.1-0.4,0.1-0.5C33,20.5,32.6,20.9,32,21.3z"/>
	</g>
	
		<linearGradient id="SVGID_38_" gradientUnits="userSpaceOnUse" x1="33.8343" y1="32.5266" x2="9.6374" y2="32.5266" gradientTransform="matrix(1 0 0 -1 0 54.6403)">
		<stop  offset="0" style="stop-color:#FFE000"/>
		<stop  offset="0.4087" style="stop-color:#FFBD00"/>
		<stop  offset="0.7754" style="stop-color:#FFA500"/>
		<stop  offset="1" style="stop-color:#FF9C00"/>
	</linearGradient>
	<path class="st43" d="M32,21.3l-5,2.8l0.1,0.1l4.9-2.8c0.5-0.3,0.7-0.6,0.9-0.9c0.1-0.2,0.1-0.4,0.1-0.5C33,20.5,32.6,20.9,32,21.3
		z"/>
	<path class="st38" d="M32,21.3l-5,2.8l0.1,0.1l4.9-2.8c0.5-0.3,0.7-0.6,0.9-0.9c0.1-0.2,0.1-0.4,0.1-0.5C33,20.5,32.6,20.9,32,21.3
		z"/>
	<g>
		<polygon points="27.1,24.2 27,24.1 27,24.1 		"/>
	</g>
	
		<linearGradient id="SVGID_39_" gradientUnits="userSpaceOnUse" x1="33.8343" y1="30.4617" x2="9.6374" y2="30.4617" gradientTransform="matrix(1 0 0 -1 0 54.6403)">
		<stop  offset="0" style="stop-color:#FFE000"/>
		<stop  offset="0.4087" style="stop-color:#FFBD00"/>
		<stop  offset="0.7754" style="stop-color:#FFA500"/>
		<stop  offset="1" style="stop-color:#FF9C00"/>
	</linearGradient>
	<polygon class="st44" points="27.1,24.2 27,24.1 27,24.1 	"/>
	
		<linearGradient id="SVGID_40_" gradientUnits="userSpaceOnUse" x1="27.0752" y1="30.4617" x2="27.0752" y2="30.4617" gradientTransform="matrix(1 0 0 -1 0 54.6403)">
		<stop  offset="0" style="stop-color:#FF3A44"/>
		<stop  offset="1" style="stop-color:#C31162"/>
	</linearGradient>
	<polygon class="st45" points="27.1,24.2 27,24.1 27,24.1 	"/>
	<polygon class="st38" points="27.1,24.2 27,24.1 27,24.1 	"/>
	<g>
		<path d="M11.9,7.2c0.2,0.1,0.4,0.1,0.6,0.2C12.3,7.4,12.1,7.3,11.9,7.2z"/>
	</g>
	<path class="st46" d="M11.9,7.2c0.2,0.1,0.4,0.1,0.6,0.2C12.3,7.4,12.1,7.3,11.9,7.2z"/>
	<g>
		<path d="M10.9,7.2c0.1,0,0.2-0.1,0.3-0.1C11.1,7.2,11,7.2,10.9,7.2z"/>
	</g>
	<path class="st46" d="M10.9,7.2c0.1,0,0.2-0.1,0.3-0.1C11.1,7.2,11,7.2,10.9,7.2z"/>
	<g>
		<path d="M32,18.6l-4.9-2.8l0,0l0,0L32,18.6c0.7,0.4,1,0.9,1,1.4c0,0,0,0,0,0C33.1,19.5,32.7,19,32,18.6z"/>
	</g>
	<path class="st46" d="M32,18.6l-4.9-2.8l0,0l0,0L32,18.6c0.7,0.4,1,0.9,1,1.4c0,0,0,0,0,0C33.1,19.5,32.7,19,32,18.6z"/>
	<g>
		<path d="M11.4,7.2c0.1,0,0.2,0,0.4,0C11.6,7.2,11.5,7.2,11.4,7.2z"/>
	</g>
	<path class="st46" d="M11.4,7.2c0.1,0,0.2,0,0.4,0C11.6,7.2,11.5,7.2,11.4,7.2z"/>
	<g>
		<path d="M10.4,7.6C10.4,7.6,10.4,7.6,10.4,7.6C10.4,7.6,10.4,7.6,10.4,7.6z"/>
	</g>
	<path class="st46" d="M10.4,7.6C10.4,7.6,10.4,7.6,10.4,7.6C10.4,7.6,10.4,7.6,10.4,7.6z"/>
	<g>
		<path d="M10,8.4c0,0,0-0.1,0-0.1C10,8.3,10,8.4,10,8.4z"/>
	</g>
	<path class="st46" d="M10,8.4c0,0,0-0.1,0-0.1C10,8.3,10,8.4,10,8.4z"/>
	<g>
		<path d="M10.8,7.3c-0.1,0-0.2,0.1-0.3,0.2l0,0C10.6,7.4,10.7,7.3,10.8,7.3z"/>
	</g>
	<path class="st46" d="M10.8,7.3c-0.1,0-0.2,0.1-0.3,0.2l0,0C10.6,7.4,10.7,7.3,10.8,7.3z"/>
	<g>
		<path d="M10.1,8c0,0,0-0.1,0.1-0.1C10.2,7.9,10.2,8,10.1,8z"/>
	</g>
	<path class="st46" d="M10.1,8c0,0,0-0.1,0.1-0.1C10.2,7.9,10.2,8,10.1,8z"/>
	<g>
		<path d="M10.5,7.5L10.5,7.5C10.5,7.5,10.5,7.5,10.5,7.5C10.5,7.5,10.5,7.5,10.5,7.5z"/>
	</g>
	
		<linearGradient id="SVGID_41_" gradientUnits="userSpaceOnUse" x1="15.542" y1="52.1881" x2="-1.2404" y2="35.4057" gradientTransform="matrix(1 0 0 -1 0 54.6403)">
		<stop  offset="0" style="stop-color:#00A0FF"/>
		<stop  offset="6.574450e-03" style="stop-color:#00A1FF"/>
		<stop  offset="0.2601" style="stop-color:#00BEFF"/>
		<stop  offset="0.5122" style="stop-color:#00D2FF"/>
		<stop  offset="0.7604" style="stop-color:#00DFFF"/>
		<stop  offset="1" style="stop-color:#00E3FF"/>
	</linearGradient>
	<path class="st47" d="M10.5,7.5L10.5,7.5C10.5,7.5,10.5,7.5,10.5,7.5C10.5,7.5,10.5,7.5,10.5,7.5z"/>
	<path class="st46" d="M10.5,7.5L10.5,7.5C10.5,7.5,10.5,7.5,10.5,7.5C10.5,7.5,10.5,7.5,10.5,7.5z"/>
	<g>
		<path d="M10.5,7.6L10.5,7.6C10.4,7.5,10.4,7.5,10.5,7.6c-0.1,0-0.1,0-0.2,0c-0.1,0.1-0.1,0.2-0.2,0.2c0,0,0,0.1-0.1,0.1
			c0,0.1-0.1,0.2-0.1,0.3c0,0,0,0.1,0,0.1c0,0.2,0,0.3,0,0.5v0.1C10,8.4,10.2,7.9,10.5,7.6z"/>
	</g>
	
		<linearGradient id="SVGID_42_" gradientUnits="userSpaceOnUse" x1="15.8048" y1="51.9253" x2="-0.9776" y2="35.1429" gradientTransform="matrix(1 0 0 -1 0 54.6403)">
		<stop  offset="0" style="stop-color:#00A0FF"/>
		<stop  offset="6.574450e-03" style="stop-color:#00A1FF"/>
		<stop  offset="0.2601" style="stop-color:#00BEFF"/>
		<stop  offset="0.5122" style="stop-color:#00D2FF"/>
		<stop  offset="0.7604" style="stop-color:#00DFFF"/>
		<stop  offset="1" style="stop-color:#00E3FF"/>
	</linearGradient>
	<path class="st48" d="M10.5,7.6L10.5,7.6C10.4,7.5,10.4,7.5,10.5,7.6c-0.1,0-0.1,0-0.2,0c-0.1,0.1-0.1,0.2-0.2,0.2
		c0,0,0,0.1-0.1,0.1c0,0.1-0.1,0.2-0.1,0.3c0,0,0,0.1,0,0.1c0,0.2,0,0.3,0,0.5v0.1C10,8.4,10.2,7.9,10.5,7.6z"/>
	<path class="st46" d="M10.5,7.6L10.5,7.6C10.4,7.5,10.4,7.5,10.5,7.6c-0.1,0-0.1,0-0.2,0c-0.1,0.1-0.1,0.2-0.2,0.2
		c0,0,0,0.1-0.1,0.1c0,0.1-0.1,0.2-0.1,0.3c0,0,0,0.1,0,0.1c0,0.2,0,0.3,0,0.5v0.1C10,8.4,10.2,7.9,10.5,7.6z"/>
	<g>
		<path d="M32,18.6l-4.9-2.8l0,0L27,15.9l5,2.8c0.6,0.4,1,0.8,1,1.3C33.1,19.5,32.7,19,32,18.6z"/>
	</g>
	
		<linearGradient id="SVGID_43_" gradientUnits="userSpaceOnUse" x1="33.8343" y1="36.7515" x2="9.6374" y2="36.7515" gradientTransform="matrix(1 0 0 -1 0 54.6403)">
		<stop  offset="0" style="stop-color:#FFE000"/>
		<stop  offset="0.4087" style="stop-color:#FFBD00"/>
		<stop  offset="0.7754" style="stop-color:#FFA500"/>
		<stop  offset="1" style="stop-color:#FF9C00"/>
	</linearGradient>
	<path class="st49" d="M32,18.6l-4.9-2.8l0,0L27,15.9l5,2.8c0.6,0.4,1,0.8,1,1.3C33.1,19.5,32.7,19,32,18.6z"/>
	<path class="st46" d="M32,18.6l-4.9-2.8l0,0L27,15.9l5,2.8c0.6,0.4,1,0.8,1,1.3C33.1,19.5,32.7,19,32,18.6z"/>
	<g>
		<path d="M10.6,7.6c0.5-0.4,1.1-0.4,1.9,0.1l14.4,8.2l0.1-0.1l0.1,0.1l0,0L12.5,7.5c0,0,0,0,0,0c-0.2-0.1-0.4-0.2-0.6-0.2
			c-0.1,0-0.1,0-0.2,0c-0.1,0-0.2,0-0.4,0c-0.1,0-0.1,0-0.2,0c-0.1,0-0.2,0-0.3,0.1c0,0-0.1,0-0.1,0.1C10.7,7.3,10.6,7.4,10.6,7.6
			L10.6,7.6z"/>
	</g>
	
		<linearGradient id="SVGID_44_" gradientUnits="userSpaceOnUse" x1="7.3338" y1="54.5005" x2="17.4963" y2="44.338" gradientTransform="matrix(1 0 0 -1 0 54.6403)">
		<stop  offset="0" style="stop-color:#32A071"/>
		<stop  offset="6.850000e-02" style="stop-color:#2DA771"/>
		<stop  offset="0.4762" style="stop-color:#15CF74"/>
		<stop  offset="0.8009" style="stop-color:#06E775"/>
		<stop  offset="1" style="stop-color:#00F076"/>
	</linearGradient>
	<path class="st50" d="M10.6,7.6c0.5-0.4,1.1-0.4,1.9,0.1l14.4,8.2l0.1-0.1l0.1,0.1l0,0L12.5,7.5c0,0,0,0,0,0
		c-0.2-0.1-0.4-0.2-0.6-0.2c-0.1,0-0.1,0-0.2,0c-0.1,0-0.2,0-0.4,0c-0.1,0-0.1,0-0.2,0c-0.1,0-0.2,0-0.3,0.1c0,0-0.1,0-0.1,0.1
		C10.7,7.3,10.6,7.4,10.6,7.6L10.6,7.6z"/>
	<path class="st46" d="M10.6,7.6c0.5-0.4,1.1-0.4,1.9,0.1l14.4,8.2l0.1-0.1l0.1,0.1l0,0L12.5,7.5c0,0,0,0,0,0
		c-0.2-0.1-0.4-0.2-0.6-0.2c-0.1,0-0.1,0-0.2,0c-0.1,0-0.2,0-0.4,0c-0.1,0-0.1,0-0.2,0c-0.1,0-0.2,0-0.3,0.1c0,0-0.1,0-0.1,0.1
		C10.7,7.3,10.6,7.4,10.6,7.6L10.6,7.6z"/>
	<g>
		<path d="M10.5,7.5C10.5,7.5,10.5,7.5,10.5,7.5C10.5,7.5,10.5,7.5,10.5,7.5l0,0.1C10.5,7.6,10.6,7.6,10.5,7.5L10.5,7.5z"/>
	</g>
	
		<linearGradient id="SVGID_45_" gradientUnits="userSpaceOnUse" x1="15.5788" y1="52.1512" x2="-1.2036" y2="35.3688" gradientTransform="matrix(1 0 0 -1 0 54.6403)">
		<stop  offset="0" style="stop-color:#00A0FF"/>
		<stop  offset="6.574450e-03" style="stop-color:#00A1FF"/>
		<stop  offset="0.2601" style="stop-color:#00BEFF"/>
		<stop  offset="0.5122" style="stop-color:#00D2FF"/>
		<stop  offset="0.7604" style="stop-color:#00DFFF"/>
		<stop  offset="1" style="stop-color:#00E3FF"/>
	</linearGradient>
	<path class="st51" d="M10.5,7.5C10.5,7.5,10.5,7.5,10.5,7.5C10.5,7.5,10.5,7.5,10.5,7.5l0,0.1C10.5,7.6,10.6,7.6,10.5,7.5L10.5,7.5
		z"/>
	
		<linearGradient id="SVGID_46_" gradientUnits="userSpaceOnUse" x1="5.222" y1="52.3887" x2="15.3845" y2="42.2262" gradientTransform="matrix(1 0 0 -1 0 54.6403)">
		<stop  offset="0" style="stop-color:#32A071"/>
		<stop  offset="6.850000e-02" style="stop-color:#2DA771"/>
		<stop  offset="0.4762" style="stop-color:#15CF74"/>
		<stop  offset="0.8009" style="stop-color:#06E775"/>
		<stop  offset="1" style="stop-color:#00F076"/>
	</linearGradient>
	<path class="st52" d="M10.5,7.5C10.5,7.5,10.5,7.5,10.5,7.5C10.5,7.5,10.5,7.5,10.5,7.5l0,0.1C10.5,7.6,10.6,7.6,10.5,7.5L10.5,7.5
		z"/>
	<path class="st46" d="M10.5,7.5C10.5,7.5,10.5,7.5,10.5,7.5C10.5,7.5,10.5,7.5,10.5,7.5l0,0.1C10.5,7.6,10.6,7.6,10.5,7.5L10.5,7.5
		z"/>
	<g>
		<polygon points="26.9,15.8 27,15.9 27.1,15.8 27,15.7 		"/>
	</g>
	
		<linearGradient id="SVGID_47_" gradientUnits="userSpaceOnUse" x1="33.8343" y1="38.8428" x2="9.6374" y2="38.8428" gradientTransform="matrix(1 0 0 -1 0 54.6403)">
		<stop  offset="0" style="stop-color:#FFE000"/>
		<stop  offset="0.4087" style="stop-color:#FFBD00"/>
		<stop  offset="0.7754" style="stop-color:#FFA500"/>
		<stop  offset="1" style="stop-color:#FF9C00"/>
	</linearGradient>
	<polygon class="st53" points="26.9,15.8 27,15.9 27.1,15.8 27,15.7 	"/>
	
		<linearGradient id="SVGID_48_" gradientUnits="userSpaceOnUse" x1="9.3523" y1="56.519" x2="19.5148" y2="46.3565" gradientTransform="matrix(1 0 0 -1 0 54.6403)">
		<stop  offset="0" style="stop-color:#32A071"/>
		<stop  offset="6.850000e-02" style="stop-color:#2DA771"/>
		<stop  offset="0.4762" style="stop-color:#15CF74"/>
		<stop  offset="0.8009" style="stop-color:#06E775"/>
		<stop  offset="1" style="stop-color:#00F076"/>
	</linearGradient>
	<polygon class="st54" points="26.9,15.8 27,15.9 27.1,15.8 27,15.7 	"/>
	<polygon class="st46" points="26.9,15.8 27,15.9 27.1,15.8 27,15.7 	"/>
</g>
</svg>
