<svg id="Background" xmlns="http://www.w3.org/2000/svg" xmlns:xlink="http://www.w3.org/1999/xlink" viewBox="0 0 1080 1080"><defs><style>.cls-1{fill:url(#linear-gradient);}.cls-2{fill:#fff;}</style><linearGradient id="linear-gradient" y1="1080" x2="1080" gradientUnits="userSpaceOnUse"><stop offset="0" stop-color="#fff1b5"/><stop offset="0.23" stop-color="#f97794"/><stop offset="0.73" stop-color="#623aa2"/></linearGradient></defs><title>surprize_appicon</title><rect class="cls-1" width="1080" height="1080"/><path class="cls-2" d="M605.45,487.64a231.6,231.6,0,0,1,63.82,15.81,211.84,211.84,0,0,1,55.64,32.73,159.53,159.53,0,0,1,39.82,49.09q15.25,28.92,15.27,66,0,48-19.64,85.09a191.08,191.08,0,0,1-52.91,62.73q-33.29,25.65-76.91,39.27a309.14,309.14,0,0,1-181.63,0q-43.11-13.62-76.36-39.27a190.84,190.84,0,0,1-52.91-62.73Q300,699.3,300,651.27H463.64q0,18.57,7.09,31.09a55.12,55.12,0,0,0,18,19.64,69,69,0,0,0,24.54,9.82A135.93,135.93,0,0,0,540,714.54a102,102,0,0,0,51.82-14.18q24.54-14.16,24.54-42.54,0-20.72-24-37.09t-61.09-21.82a373,373,0,0,1-83.45-20.73q-40.9-15.25-72-38.18t-50.18-52.91a118.47,118.47,0,0,1-19.09-64.91q0-44.71,18.54-80.73a182.87,182.87,0,0,1,50.73-61.09Q408,255.28,450,241.64T540,228a291.34,291.34,0,0,1,89.45,13.64q42.56,13.65,74.73,39.27a183.93,183.93,0,0,1,50.73,63.27q18.54,37.63,18.54,84.55H609.82q0-37.08-21.27-50.18T540,365.46q-27.29,0-48.55,11.45t-21.27,40.91q0,13.1,12,24.54t31.64,20.73a234.06,234.06,0,0,0,43.63,15.27A445.71,445.71,0,0,0,605.45,487.64Z"/></svg>